<?xml version="1.0" encoding="UTF-8" standalone="no"?>
<!-- Generator: Adobe Illustrator 13.0.2, SVG Export Plug-In . SVG Version: 6.00 Build 14948)  -->

<svg
   xmlns:dc="http://purl.org/dc/elements/1.1/"
   xmlns:cc="http://creativecommons.org/ns#"
   xmlns:rdf="http://www.w3.org/1999/02/22-rdf-syntax-ns#"
   xmlns:svg="http://www.w3.org/2000/svg"
   xmlns="http://www.w3.org/2000/svg"
   xmlns:sodipodi="http://sodipodi.sourceforge.net/DTD/sodipodi-0.dtd"
   xmlns:inkscape="http://www.inkscape.org/namespaces/inkscape"
   version="1.1"
   id="Layer_1"
   x="0px"
   y="0px"
   width="744"
   height="744"
   viewBox="0 0 743.99997 743.99998"
   enable-background="new 0 0 353.209 182.186"
   xml:space="preserve"
   inkscape:version="0.48.0 r9654"
   sodipodi:docname="johnny_automatic_open_book.svg"><metadata
   id="metadata8430"><rdf:RDF><cc:Work
       rdf:about=""><dc:format>image/svg+xml</dc:format><dc:type
         rdf:resource="http://purl.org/dc/dcmitype/StillImage" /><dc:title></dc:title></cc:Work></rdf:RDF></metadata><defs
   id="defs8428">
	
	
	
	

		
		
		
		
		
		
		
		
		
		
	</defs><sodipodi:namedview
   pagecolor="#ffffff"
   bordercolor="#666666"
   borderopacity="1"
   objecttolerance="10"
   gridtolerance="10"
   guidetolerance="10"
   inkscape:pageopacity="0"
   inkscape:pageshadow="2"
   inkscape:window-width="1600"
   inkscape:window-height="826"
   id="namedview8426"
   showgrid="false"
   inkscape:zoom="0.5"
   inkscape:cx="60.834538"
   inkscape:cy="120.58854"
   inkscape:window-x="0"
   inkscape:window-y="24"
   inkscape:window-maximized="1"
   inkscape:current-layer="Layer_1" />
<g
   id="g8992"
   transform="translate(0,9.9999995)"><path
     style="opacity:0.2"
     d="m 687.07325,293.56655 c 6.40689,-2.39782 4.00066,8.8317 10.40755,6.4371 3.41368,6.88769 -5.30577,15.62284 -2.08151,32.18227 l -3.81541,-1.60927 -2.42912,4.82782 c -4.65218,-1.39041 -0.84301,-15.86423 -2.08151,-22.52984 l 0.92419,-8.76411 -5.08722,-4.10687 c 0,-1.07178 0,-2.14677 0,-3.21855 l 3.12227,1.60927 1.04076,-4.82782 z"
     id="path8398"
     inkscape:connector-curvature="0" /><path
     style="opacity:0.2"
     d="m 692.97017,337.01374 2.42912,-4.82782 c 14.29791,13.28939 26.72869,29.46582 39.54248,45.05325 1.45081,16.18608 -3.53024,22.43329 -2.08151,38.61615 -63.79001,8.95079 -122.12229,19.92282 -183.14805,32.18227 -19.21235,3.85904 -41.33673,5.39107 -58.27399,12.87098 -25.16964,11.1233 -34.27626,39.13756 -64.51854,45.05647 -14.77665,2.88704 -25.71707,-5.7773 -41.62607,-3.21855 -19.23941,3.09302 -42.22346,23.61771 -62.4391,35.3976 C 262.6905,573.2134 199.85591,611.41114 145.94892,653.99898 129.76309,628.32783 120.47954,594.44617 108.48587,563.88926 73.745446,475.37273 35.616316,384.11399 0.26184193,293.56977 -1.601111,283.17708 7.0496513,289.04771 8.5878883,283.91412 l 3.1222677,1.60928 3.122267,-1.60928 c 43.434903,110.90798 88.179077,219.7915 133.200087,328.24694 1.2385,-6.6624 -2.57274,-21.13621 2.08152,-22.52662 l 2.42912,4.82782 3.81541,-1.60927 c 2.76217,14.11333 -3.93406,30.14171 -2.08151,32.18227 76.36233,-57.8502 134.4594,-143.94639 249.74809,-141.60007 -1.76513,-37.05193 10.91961,-51.76714 18.72944,-74.01697 -3.29295,-0.26714 -7.93472,1.54812 -8.32189,-3.21855 l 1.04076,-4.8246 -1.04076,-4.82782 c 1.77137,0.59543 1.96079,-1.25524 2.08152,-3.21855 l 2.82044,-3.90732 -0.73893,-5.74833 c 8.04296,0.43772 8.20532,13.05765 14.56642,16.09274 l 2.52903,4.36436 3.7155,-1.14581 c -1.39045,13.93954 -9.63115,17.28683 -10.40756,32.17906 9.806,-0.93016 14.7371,-9.39495 27.05549,-6.43388 8.20532,3.40522 7.93472,19.91638 12.48907,28.9605 40.64568,-77.67324 140.66855,-63.53416 228.93713,-67.57987 -2.47283,-18.70299 -8.64659,-31.6834 -8.32604,-54.70568 l 3.81541,1.60927 z"
     id="path8400"
     inkscape:connector-curvature="0" /><path
     style="opacity:0.2"
     d="m 12.401218,279.0863 -3.8154112,1.60927 c 0.1727655,-5.09496 -1.0012071,-12.27554 2.0815112,-12.87419 l 2.429124,4.82782 3.815411,-1.60927 c -0.172765,5.09496 1.001207,12.26911 -2.081511,12.87419 l -2.429124,-4.82782 z"
     id="path8402"
     inkscape:connector-curvature="0" /><path
     style="opacity:0.2;fill:none;stroke:#000000;stroke-width:8.18403721;stroke-linecap:round"
     inkscape:connector-curvature="0"
     id="path8406"
     d="m 693.05109,330.57665 c 0.4621,2.14677 0.92419,4.29032 1.38629,6.43709" /><path
     style="opacity:0.2;fill:none;stroke:#000000;stroke-width:7.97671223;stroke-linecap:round"
     inkscape:connector-curvature="0"
     id="path8408"
     d="m 11.708074,285.5234 c 0.08326,-2.14677 0.382998,-4.29033 0.693144,-6.4371" /><path
     style="opacity:0.2;fill:none;stroke:#000000;stroke-width:8.64165401;stroke-linecap:round"
     inkscape:connector-curvature="0"
     id="path8410"
     d="m 13.096442,272.6492 c 1.756796,-15.89319 3.299196,-36.26661 14.012737,-43.77227" /><path
     style="opacity:0.2;fill:none;stroke:#000000;stroke-width:5.90320206;stroke-linecap:round"
     inkscape:connector-curvature="0"
     id="path8412"
     d="M 27.109179,228.88337 C 92.214698,162.07917 183.33495,55.963608 259.08116,154.49627" /><path
     style="opacity:0.2;fill:none;stroke:#000000;stroke-width:6.02563;stroke-linecap:round"
     inkscape:connector-curvature="0"
     id="path8414"
     d="M 263.24418,154.49627 C 308.06537,38.77012 406.02547,96.201908 477.58576,71.644379 547.95958,148.12676 621.40572,219.38222 690.1976,298.39759" /><path
     style="opacity:0.2;fill:none;stroke:#000000;stroke-width:10.32717419;stroke-linecap:round"
     inkscape:connector-curvature="0"
     id="path8416"
     d="M 435.68701,404.13337 C 493.05763,282.87453 604.11044,326.52127 687.99952,304.11695" /><path
     style="opacity:0.2;fill:none;stroke:#000000;stroke-width:7.86386108;stroke-linecap:round"
     inkscape:connector-curvature="0"
     id="path8418"
     d="m 259.08116,154.49627 c 54.22962,76.89435 105.7845,158.64871 160.25558,234.92189" /><path
     style="opacity:0.2;fill:none;stroke:#000000;stroke-width:6.77003384;stroke-linecap:round"
     inkscape:connector-curvature="0"
     id="path8420"
     d="M 27.109179,228.88337 C 72.937819,328.43309 111.0607,437.48397 156.3544,538.14731" /><path
     style="opacity:0.2;fill:none;stroke:#000000;stroke-width:7.71451473;stroke-linecap:round"
     inkscape:connector-curvature="0"
     id="path8422"
     d="m 156.35648,538.14409 c 82.8171,-58.3362 162.19138,-156.66931 259.11281,-136.76902" /><path
     style="opacity:0.2;fill:none;stroke:#000000;stroke-width:9.64980793;stroke-linecap:round"
     inkscape:connector-curvature="0"
     id="path8424"
     d="m 156.35648,538.14409 c -1.15732,18.78345 -1.93581,37.63449 -3.81541,56.31817" /></g>
</svg>