<?xml version="1.0" encoding="UTF-8" standalone="no"?>
<!-- Created with Inkscape (http://www.inkscape.org/) -->

<svg
   xmlns:dc="http://purl.org/dc/elements/1.1/"
   xmlns:cc="http://creativecommons.org/ns#"
   xmlns:rdf="http://www.w3.org/1999/02/22-rdf-syntax-ns#"
   xmlns:svg="http://www.w3.org/2000/svg"
   xmlns="http://www.w3.org/2000/svg"
   xmlns:sodipodi="http://sodipodi.sourceforge.net/DTD/sodipodi-0.dtd"
   xmlns:inkscape="http://www.inkscape.org/namespaces/inkscape"
   width="700.00562"
   height="700.00562"
   id="svg2"
   version="1.1"
   inkscape:version="0.48.0 r9654"
   sodipodi:docname="DartBoard.svg">
  <sodipodi:namedview
     id="base"
     pagecolor="#ffffff"
     bordercolor="#666666"
     borderopacity="1.0"
     inkscape:pageopacity="0"
     inkscape:pageshadow="2"
     inkscape:zoom="0.35"
     inkscape:cx="-115.72845"
     inkscape:cy="252.50862"
     inkscape:document-units="px"
     inkscape:current-layer="svg2"
     showgrid="false"
     inkscape:window-width="1600"
     inkscape:window-height="826"
     inkscape:window-x="0"
     inkscape:window-y="24"
     inkscape:window-maximized="1"
     inkscape:showpageshadow="false"
     showborder="true"
     fit-margin-top="0"
     fit-margin-left="0"
     fit-margin-right="0"
     fit-margin-bottom="0" />
  <defs
     id="defs4" />
  <metadata
     id="metadata7">
    <rdf:RDF>
      <cc:Work
         rdf:about="">
        <dc:format>image/svg+xml</dc:format>
        <dc:type
           rdf:resource="http://purl.org/dc/dcmitype/StillImage" />
        <dc:title></dc:title>
      </cc:Work>
    </rdf:RDF>
  </metadata>
  <g
     inkscape:label="Layer 1"
     inkscape:groupmode="layer"
     id="layer1"
     transform="translate(-22.157025,-90.579486)">
    <g
       id="layer1-7"
       inkscape:label="Layer 1"
       transform="translate(0.69028429,-9.6466614)" />
  </g>
  <g
     transform="translate(977.56801,342.15028)"
     id="g4097">
    <path
       sodipodi:type="arc"
       style="fill:#000000;stroke:#ffffff;stroke-width:1.48431838;stroke-linecap:round;stroke-linejoin:miter;stroke-miterlimit:4;stroke-opacity:1;stroke-dasharray:none;stroke-dashoffset:0"
       id="path2998"
       sodipodi:cx="-637.83679"
       sodipodi:cy="97.029259"
       sodipodi:rx="345.59882"
       sodipodi:ry="345.59882"
       d="m -292.23798,97.029259 c 0,190.868951 -154.72986,345.598811 -345.59881,345.598811 -190.86896,0 -345.59882,-154.72986 -345.59882,-345.598811 0,-190.868956 154.72986,-345.598819 345.59882,-345.598819 190.86895,0 345.59881,154.729863 345.59881,345.598819 z"
       transform="matrix(1.0105648,0,0,1.0105648,17.017239,-90.203847)" />
    <path
       sodipodi:type="arc"
       style="fill:#d9d4b6;fill-opacity:1;stroke:#ffffff;stroke-width:1.92534137;stroke-linecap:butt;stroke-linejoin:miter;stroke-miterlimit:4;stroke-opacity:1;stroke-dasharray:none;stroke-dashoffset:0"
       id="path3800"
       sodipodi:cx="-637.83679"
       sodipodi:cy="97.029259"
       sodipodi:rx="345.59882"
       sodipodi:ry="345.59882"
       d="m -292.23798,97.029259 c 0,36.265621 -5.70811,72.305251 -16.91481,106.795911 l -328.684,-106.795911 z"
       transform="matrix(0.77224948,-0.10295788,0.10295788,0.77224948,-144.88643,-132.85631)"
       sodipodi:start="0"
       sodipodi:end="0.31415927"
       inkscape:transform-center-x="-135.46754"
       inkscape:transform-center-y="7.1694793" />
    <path
       transform="matrix(0.56402041,-0.53744818,0.53744818,0.56402041,-319.64305,-390.40463)"
       style="fill:#d9d4b6;fill-opacity:1;stroke:#ffffff;stroke-width:1.92534137;stroke-linecap:butt;stroke-linejoin:miter;stroke-miterlimit:4;stroke-opacity:1;stroke-dashoffset:0"
       inkscape:transform-center-x="-122.45123"
       inkscape:transform-center-y="-92.845158"
       d="m -292.97027,97.15196 c 0,36.26562 -5.75933,72.359 -16.96603,106.84966 L -637.83679,97.029259 z"
       id="path3804"
       inkscape:connector-curvature="0"
       sodipodi:nodetypes="cccc" />
    <path
       transform="matrix(0.14222747,-0.76599016,0.76599016,0.14222747,-611.03941,-495.8769)"
       style="fill:#d9d4b6;fill-opacity:1;stroke:#ffffff;stroke-width:1.92534137;stroke-linecap:butt;stroke-linejoin:miter;stroke-miterlimit:4;stroke-opacity:1;stroke-dashoffset:0"
       inkscape:transform-center-x="-65.150568"
       inkscape:transform-center-y="-132.96312"
       d="m -293.7857,97.016164 c 0,36.265616 -5.45617,72.043846 -16.66287,106.534506 L -637.83679,97.029259 z"
       id="path3808"
       inkscape:connector-curvature="0"
       sodipodi:nodetypes="cccc" />
    <path
       transform="matrix(-0.33454287,-0.70359835,0.70359835,-0.33454287,-909.60629,-410.21936)"
       style="fill:#d9d4b6;fill-opacity:1;stroke:#ffffff;stroke-width:1.92534137;stroke-linecap:butt;stroke-linejoin:miter;stroke-miterlimit:4;stroke-opacity:1;stroke-dashoffset:0"
       inkscape:transform-center-x="57.453544"
       inkscape:transform-center-y="-134.49407"
       d="m -294.3612,97.095473 c 0,36.265617 -5.62258,71.748277 -16.82928,106.238937 L -637.83679,97.029259 z"
       id="path3812"
       inkscape:connector-curvature="0"
       sodipodi:nodetypes="cccc" />
    <path
       transform="matrix(-0.14706587,0.76507596,-0.76507596,-0.14706587,-648.75553,509.95873)"
       style="fill:#d9d4b6;fill-opacity:1;stroke:#ffffff;stroke-width:1.92534137;stroke-linecap:butt;stroke-linejoin:miter;stroke-miterlimit:4;stroke-opacity:1;stroke-dashoffset:0"
       inkscape:transform-center-x="65.900676"
       inkscape:transform-center-y="132.7996"
       d="m -292.23798,97.029259 c 0,36.265621 -6.37074,72.170451 -17.57744,106.661111 L -637.83679,97.029259 z"
       id="path3828"
       inkscape:connector-curvature="0"
       sodipodi:nodetypes="cccc" />
    <path
       sodipodi:type="arc"
       style="fill:#d9d4b6;fill-opacity:1;stroke:#ffffff;stroke-width:1.92534137;stroke-linecap:butt;stroke-linejoin:miter;stroke-miterlimit:4;stroke-opacity:1;stroke-dasharray:none;stroke-dashoffset:0"
       id="path3832"
       sodipodi:cx="-637.83679"
       sodipodi:cy="97.029259"
       sodipodi:rx="345.59882"
       sodipodi:ry="345.59882"
       d="m -292.23798,97.029259 c 0,36.265621 -5.70811,72.305251 -16.91481,106.795911 l -328.684,-106.795911 z"
       transform="matrix(0.32816394,0.70659609,-0.70659609,0.32816394,-350.79695,426.94812)"
       sodipodi:start="0"
       sodipodi:end="0.31415927"
       inkscape:transform-center-x="-56.342231"
       inkscape:transform-center-y="134.64282" />
    <path
       sodipodi:type="arc"
       style="fill:#d9d4b6;fill-opacity:1;stroke:#ffffff;stroke-width:1.92534137;stroke-linecap:butt;stroke-linejoin:miter;stroke-miterlimit:4;stroke-opacity:1;stroke-dasharray:none;stroke-dashoffset:0"
       id="path3836"
       sodipodi:cx="-637.83679"
       sodipodi:cy="97.029259"
       sodipodi:rx="345.59882"
       sodipodi:ry="345.59882"
       d="m -292.23798,97.029259 c 0,36.265621 -5.70811,72.305251 -16.91481,106.795911 l -328.684,-106.795911 z"
       transform="matrix(0.68035603,0.37958566,-0.37958566,0.68035603,-157.23163,184.22014)"
       sodipodi:start="0"
       sodipodi:end="0.31415927"
       inkscape:transform-center-x="-117.85464"
       inkscape:transform-center-y="99.731848" />
    <path
       transform="matrix(-0.68304131,-0.37473209,0.37473209,-0.68304131,-1100.6338,-166.66071)"
       style="fill:#d9d4b6;fill-opacity:1;stroke:#ffffff;stroke-width:1.92534137;stroke-linecap:butt;stroke-linejoin:miter;stroke-miterlimit:4;stroke-opacity:1;stroke-dashoffset:0"
       inkscape:transform-center-x="118.3259"
       inkscape:transform-center-y="-99.075527"
       d="m -294.44104,97.113319 c 0,36.265621 -5.92191,71.681061 -17.12861,106.171721 L -637.83679,97.029259 z"
       id="path3816"
       inkscape:connector-curvature="0"
       sodipodi:nodetypes="cccc" />
    <path
       transform="matrix(-0.56846671,0.53274308,-0.53274308,-0.56846671,-940.26559,402.02715)"
       style="fill:#d9d4b6;fill-opacity:1;stroke:#ffffff;stroke-width:1.92534137;stroke-linecap:butt;stroke-linejoin:miter;stroke-miterlimit:4;stroke-opacity:1;stroke-dashoffset:0"
       inkscape:transform-center-x="122.93045"
       inkscape:transform-center-y="92.02329"
       d="m -293.18226,96.937115 c 0,36.265625 -6.19609,72.021675 -17.40279,106.512335 L -637.83679,97.029259 z"
       id="path3824"
       inkscape:connector-curvature="0"
       sodipodi:nodetypes="cccc" />
    <path
       transform="matrix(-0.77292786,0.09773488,-0.09773488,-0.77292786,-1112.6651,143.78603)"
       style="fill:#d9d4b6;fill-opacity:1;stroke:#ffffff;stroke-width:1.92534137;stroke-linecap:butt;stroke-linejoin:miter;stroke-miterlimit:4;stroke-opacity:1;stroke-dashoffset:0"
       inkscape:transform-center-x="135.46324"
       inkscape:transform-center-y="-8.9722887"
       d="m -293.96341,96.987683 c 0,36.265617 -6.00964,71.751447 -17.21634,106.242107 L -637.83679,97.029259 z"
       id="path3820"
       inkscape:connector-curvature="0"
       sodipodi:nodetypes="cccc" />
    <path
       transform="matrix(0.73209538,-0.09760445,0.09760445,0.73209538,-169.97876,-125.54557)"
       style="fill:#ff0000;stroke:#ffffff;stroke-width:2.03094316;stroke-linecap:butt;stroke-linejoin:miter;stroke-miterlimit:4;stroke-opacity:1;stroke-dashoffset:0"
       d="m -292.2416,96.936962 c -0.052,-36.573622 -5.90586,-73.30614 -17.34952,-108.043369 l 18.09045,-5.667346 c 12.01659,36.570039 18.1621,75.211483 18.21456,113.705164 z"
       id="path3790"
       inkscape:connector-curvature="0"
       sodipodi:nodetypes="ccccc"
       inkscape:transform-center-x="-248.38872"
       inkscape:transform-center-y="-75.7108" />
    <path
       transform="matrix(0.44241219,-0.0589833,0.0589833,0.44241219,-351.00197,-72.803831)"
       style="fill:#008000;stroke:#ffffff;stroke-width:3.36076593;stroke-linecap:butt;stroke-linejoin:miter;stroke-miterlimit:4;stroke-opacity:1;stroke-dashoffset:0"
       d="m -309.1026,203.67058 c 11.16775,-34.42587 16.85862,-70.3923 16.86462,-106.584283 l 31.36716,-0.07596 c 0.002,39.547213 -6.21911,78.848433 -18.43503,116.461653 z"
       id="path3794"
       inkscape:connector-curvature="0"
       sodipodi:nodetypes="ccccc"
       inkscape:transform-center-x="-161.29105"
       inkscape:transform-center-y="4.436572" />
    <path
       transform="matrix(0.06954534,-0.00927193,0.00927193,0.06954534,-584.00671,-4.9170944)"
       d="m -292.23798,97.029259 c 0,190.868951 -154.72986,345.598811 -345.59881,345.598811 -190.86896,0 -345.59882,-154.72986 -345.59882,-345.598811 0,-190.868956 154.72986,-345.598819 345.59882,-345.598819 190.86895,0 345.59881,154.729863 345.59881,345.598819 z"
       sodipodi:ry="345.59882"
       sodipodi:rx="345.59882"
       sodipodi:cy="97.029259"
       sodipodi:cx="-637.83679"
       id="path3796"
       style="fill:#008000;stroke:#ffffff;stroke-width:21.37949181;stroke-linecap:butt;stroke-miterlimit:4;stroke-opacity:1;stroke-dasharray:none"
       sodipodi:type="arc" />
    <path
       sodipodi:type="arc"
       style="fill:#ff0000;stroke:#ffffff;stroke-width:59.10271454;stroke-linecap:butt;stroke-miterlimit:4;stroke-opacity:1;stroke-dasharray:none"
       id="path3798"
       sodipodi:cx="-637.83679"
       sodipodi:cy="97.029259"
       sodipodi:rx="345.59882"
       sodipodi:ry="345.59882"
       d="m -292.23798,97.029259 c 0,190.868951 -154.72986,345.598811 -345.59881,345.598811 -190.86896,0 -345.59882,-154.72986 -345.59882,-345.598811 0,-190.868956 154.72986,-345.598819 345.59882,-345.598819 190.86895,0 345.59881,154.729863 345.59881,345.598819 z"
       transform="matrix(0.02515695,-0.00335398,0.00335398,0.02515695,-611.74505,3.1645656)" />
    <path
       inkscape:transform-center-y="-148.36522"
       inkscape:transform-center-x="-213.61045"
       sodipodi:nodetypes="ccccc"
       inkscape:connector-curvature="0"
       id="path3846"
       d="m -397.34451,-102.64053 c -11.67927,-24.35693 -26.97724,-46.58989 -45.66348,-66.09603 l 10.25146,-9.53664 c 19.65161,20.54515 35.75172,43.95741 48.04262,69.59376 z"
       style="fill:#008000;stroke:#ffffff;stroke-width:1.5;stroke-linecap:butt;stroke-linejoin:miter;stroke-miterlimit:4;stroke-opacity:1;stroke-dashoffset:0" />
    <path
       style="fill:#ff0000;stroke:#ffffff;stroke-width:1.5;stroke-linecap:butt;stroke-linejoin:miter;stroke-miterlimit:4;stroke-opacity:1;stroke-dashoffset:0"
       d="m -442.87372,-168.52495 c -18.58314,-19.6044 -39.45037,-35.49846 -63.21627,-48.33774 l 6.83472,-12.21993 c 25.00328,13.53237 46.99553,30.30308 66.55303,50.93783 z"
       id="path3848"
       inkscape:connector-curvature="0"
       sodipodi:nodetypes="ccccc"
       inkscape:transform-center-x="-158.38553"
       inkscape:transform-center-y="-206.33614" />
    <path
       inkscape:transform-center-y="-244.67234"
       inkscape:transform-center-x="-87.254625"
       sodipodi:nodetypes="ccccc"
       inkscape:connector-curvature="0"
       id="path3850"
       d="m -506.08138,-216.80944 c -23.73273,-12.9005 -48.44213,-21.5575 -75.01279,-26.42221 l 2.72295,-13.7341 c 27.96168,5.14139 54.01197,14.28438 78.98982,27.86361 z"
       style="fill:#008000;stroke:#ffffff;stroke-width:1.5;stroke-linecap:butt;stroke-linejoin:miter;stroke-miterlimit:4;stroke-opacity:1;stroke-dashoffset:0" />
    <path
       style="fill:#ff0000;stroke:#ffffff;stroke-width:1.5;stroke-linecap:butt;stroke-linejoin:miter;stroke-miterlimit:4;stroke-opacity:1;stroke-dashoffset:0"
       d="m -581.09092,-243.29185 c -26.54393,-5.00852 -53.00961,-5.57461 -79.79287,-2.06429 l -1.61604,-13.90785 c 28.19215,-3.67314 56.08313,-3.05528 84.02026,2.21783 z"
       id="path3852"
       inkscape:connector-curvature="0"
       sodipodi:nodetypes="ccccc"
       inkscape:transform-center-x="-7.50508"
       inkscape:transform-center-y="-260.15809" />
    <path
       inkscape:transform-center-y="-248.94333"
       inkscape:transform-center-x="73.819055"
       sodipodi:nodetypes="ccccc"
       inkscape:connector-curvature="0"
       id="path3854"
       d="m -660.70787,-245.33236 c -26.79704,3.40358 -51.74861,10.82891 -76.15165,22.41153 l -5.81781,-12.7355 c 25.69344,-12.17113 52.01707,-19.98585 80.22112,-23.56644 z"
       style="fill:#008000;stroke:#ffffff;stroke-width:1.5;stroke-linecap:butt;stroke-linejoin:miter;stroke-miterlimit:4;stroke-opacity:1;stroke-dashoffset:0" />
    <path
       style="fill:#ff0000;stroke:#ffffff;stroke-width:1.5;stroke-linecap:butt;stroke-linejoin:miter;stroke-miterlimit:4;stroke-opacity:1;stroke-dashoffset:0"
       d="m -736.79247,-222.96772 c -24.44751,11.48848 -45.64559,25.89516 -65.29723,44.42833 l -9.4562,-10.32571 c 20.69818,-19.49038 43.08178,-34.68996 68.81346,-46.78004 z"
       id="path3856"
       inkscape:connector-curvature="0"
       sodipodi:nodetypes="ccccc"
       inkscape:transform-center-x="146.69979"
       inkscape:transform-center-y="-214.75027" />
    <path
       inkscape:transform-center-y="-159.78476"
       inkscape:transform-center-x="205.25897"
       sodipodi:nodetypes="ccccc"
       inkscape:connector-curvature="0"
       id="path3858"
       d="m -802.02555,-178.58159 c -19.73109,18.44857 -35.83261,38.97103 -48.8342,62.64853 l -12.17288,-6.91817 c 13.70314,-24.91011 30.68897,-46.55156 51.45707,-65.96742 z"
       style="fill:#008000;stroke:#ffffff;stroke-width:1.5;stroke-linecap:butt;stroke-linejoin:miter;stroke-miterlimit:4;stroke-opacity:1;stroke-dashoffset:0" />
    <path
       style="fill:#ff0000;stroke:#ffffff;stroke-width:1.5;stroke-linecap:butt;stroke-linejoin:miter;stroke-miterlimit:4;stroke-opacity:1;stroke-dashoffset:0"
       d="m -850.86616,-115.89863 c -13.1651,23.586989 -22.24088,48.385247 -27.40243,74.899843 l -13.70279,-2.87637 c 5.45378,-27.902436 15.03049,-54.03606 28.88823,-78.860503 z"
       id="path3860"
       inkscape:connector-curvature="0"
       sodipodi:nodetypes="ccccc"
       inkscape:transform-center-x="243.70347"
       inkscape:transform-center-y="-89.977368" />
    <path
       inkscape:transform-center-y="-9.775206"
       inkscape:transform-center-x="259.95207"
       sodipodi:nodetypes="ccccc"
       inkscape:connector-curvature="0"
       id="path3862"
       d="m -878.19544,-41.075055 c -5.23497,26.500204 -6.20738,52.727552 -2.92587,79.539809 l -13.92114,1.497234 c -3.43229,-28.222492 -2.39596,-55.874638 3.11551,-83.765737 z"
       style="fill:#008000;stroke:#ffffff;stroke-width:1.5;stroke-linecap:butt;stroke-linejoin:miter;stroke-miterlimit:4;stroke-opacity:1;stroke-dashoffset:0" />
    <path
       style="fill:#ff0000;stroke:#ffffff;stroke-width:1.5;stroke-linecap:butt;stroke-linejoin:miter;stroke-miterlimit:4;stroke-opacity:1;stroke-dashoffset:0"
       d="m -881.11429,38.362933 c 3.14292,26.82886 10.34315,52.067653 21.68799,76.582137 l -12.79145,5.69374 C -884.13853,94.828248 -891.7148,68.213691 -895.02103,39.976153 z"
       id="path3864"
       inkscape:connector-curvature="0"
       sodipodi:nodetypes="ccccc"
       inkscape:transform-center-x="249.6294"
       inkscape:transform-center-y="71.401128" />
    <path
       inkscape:transform-center-y="144.93233"
       inkscape:transform-center-x="215.93905"
       sodipodi:nodetypes="ccccc"
       inkscape:connector-curvature="0"
       id="path3866"
       d="m -859.30643,114.96572 c 11.28634,24.54147 25.8699,46.48229 44.24026,66.2862 l -10.40338,9.37067 c -19.31891,-20.85832 -34.68556,-43.99115 -46.56288,-69.82173 z"
       style="fill:#008000;stroke:#ffffff;stroke-width:1.5;stroke-linecap:butt;stroke-linejoin:miter;stroke-miterlimit:4;stroke-opacity:1;stroke-dashoffset:0" />
    <path
       style="fill:#ff0000;stroke:#ffffff;stroke-width:1.5;stroke-linecap:butt;stroke-linejoin:miter;stroke-miterlimit:4;stroke-opacity:1;stroke-dashoffset:0"
       d="m -815.08531,181.19392 c 18.29624,19.87241 39.36052,36.39918 62.93731,49.58251 l -7.01159,12.1193 C -783.96356,229.00139 -806.14,211.58174 -825.39553,190.6649 z"
       id="path3868"
       inkscape:connector-curvature="0"
       sodipodi:nodetypes="ccccc"
       inkscape:transform-center-x="161.3488"
       inkscape:transform-center-y="204.03659" />
    <path
       inkscape:transform-center-y="243.59297"
       inkscape:transform-center-x="90.281835"
       sodipodi:nodetypes="ccccc"
       inkscape:connector-curvature="0"
       id="path3870"
       d="m -752.21085,230.71436 c 23.57044,13.19466 49.08593,22.56428 75.59404,27.75906 l -2.89354,13.69917 c -27.89558,-5.48875 -54.74581,-15.36097 -79.55285,-29.24982 z"
       style="fill:#008000;stroke:#ffffff;stroke-width:1.5;stroke-linecap:butt;stroke-linejoin:miter;stroke-miterlimit:4;stroke-opacity:1;stroke-dashoffset:0" />
    <path
       style="fill:#ff0000;stroke:#ffffff;stroke-width:1.5;stroke-linecap:butt;stroke-linejoin:miter;stroke-miterlimit:4;stroke-opacity:1;stroke-dashoffset:0"
       d="m -677.39343,258.29618 c 26.49099,5.2813 52.6788,6.40879 79.49676,3.17416 l 1.47289,13.92374 c -28.22845,3.38294 -55.84095,2.18904 -83.72236,-3.37119 z"
       id="path3872"
       inkscape:connector-curvature="0"
       sodipodi:nodetypes="ccccc"
       inkscape:transform-center-x="10.23999"
       inkscape:transform-center-y="259.90875" />
    <path
       inkscape:transform-center-y="249.59943"
       inkscape:transform-center-x="-71.508655"
       sodipodi:nodetypes="ccccc"
       inkscape:connector-curvature="0"
       id="path3874"
       d="m -597.98468,261.44833 c 26.82748,-3.1545 52.64556,-10.2511 77.15515,-21.60654 l 5.69925,12.789 c -25.8054,11.93192 -52.99909,19.40517 -81.23519,22.72359 z"
       style="fill:#008000;stroke:#ffffff;stroke-width:1.5;stroke-linecap:butt;stroke-linejoin:miter;stroke-miterlimit:4;stroke-opacity:1;stroke-dashoffset:0" />
    <path
       style="fill:#ff0000;stroke:#ffffff;stroke-width:1.5;stroke-linecap:butt;stroke-linejoin:miter;stroke-miterlimit:4;stroke-opacity:1;stroke-dashoffset:0"
       d="m -520.95871,239.91465 c 24.54803,-11.27202 46.85494,-26.1152 66.66957,-44.47402 l 9.3646,10.40886 c -20.86958,19.30673 -44.36897,34.93233 -70.20647,46.79457 z"
       id="path3876"
       inkscape:connector-curvature="0"
       sodipodi:nodetypes="ccccc"
       inkscape:transform-center-x="-144.80703"
       inkscape:transform-center-y="216.02252" />
    <path
       inkscape:transform-center-y="161.30259"
       inkscape:transform-center-x="-204.07299"
       sodipodi:nodetypes="ccccc"
       inkscape:connector-curvature="0"
       id="path3878"
       d="m -454.31809,195.43929 c 19.86822,-18.30076 36.35353,-39.21411 49.53149,-62.79392 l 12.1209,7.00884 c -13.88869,24.80713 -31.26663,46.83287 -52.17908,66.09315 z"
       style="fill:#008000;stroke:#ffffff;stroke-width:1.5;stroke-linecap:butt;stroke-linejoin:miter;stroke-miterlimit:4;stroke-opacity:1;stroke-dashoffset:0" />
    <path
       style="fill:#ff0000;stroke:#ffffff;stroke-width:1.5;stroke-linecap:butt;stroke-linejoin:miter;stroke-miterlimit:4;stroke-opacity:1;stroke-dashoffset:0"
       d="m -404.88828,132.78087 c 13.09258,-23.62728 23.43388,-52.432902 28.51395,-78.96324 l 13.71157,2.834272 c -5.36806,27.919051 -16.20617,58.061598 -29.9876,82.928458 z"
       id="path3880"
       inkscape:connector-curvature="0"
       sodipodi:nodetypes="ccccc"
       inkscape:transform-center-x="-243.97261"
       inkscape:transform-center-y="89.23069" />
    <path
       inkscape:transform-center-y="6.6940955"
       inkscape:transform-center-x="-260.22946"
       sodipodi:nodetypes="ccccc"
       inkscape:connector-curvature="0"
       id="path3882"
       d="m -376.37068,53.894985 c 4.92753,-26.559056 5.50858,-53.13942055 1.91658,-79.911858 l 13.90287,-1.65845 c 3.75909,28.1808211 3.13065,56.186648 -2.05726,84.139718 z"
       style="fill:#008000;stroke:#ffffff;stroke-width:1.5;stroke-linecap:butt;stroke-linejoin:miter;stroke-miterlimit:4;stroke-opacity:1;stroke-dashoffset:0" />
    <path
       inkscape:transform-center-y="-46.170671"
       inkscape:transform-center-x="-154.43279"
       sodipodi:nodetypes="ccccc"
       inkscape:connector-curvature="0"
       id="path3886"
       d="m -474.46702,-12.681362 c -2.09541,-16.016963 -6.84269,-32.052241 -13.77578,-46.642176 l 12.62937,-6.041544 c 7.57928,15.940877 12.75187,33.422 15.03557,50.924629 z"
       style="fill:#ff0000;stroke:#ffffff;stroke-width:1.49999976;stroke-linecap:butt;stroke-linejoin:miter;stroke-miterlimit:4;stroke-opacity:1;stroke-dashoffset:0" />
    <path
       style="fill:#008000;stroke:#ffffff;stroke-width:1.49999976;stroke-linecap:butt;stroke-linejoin:miter;stroke-miterlimit:4;stroke-opacity:1;stroke-dashoffset:0"
       d="m -488.23112,-59.320282 c -6.9566,-14.578738 -16.20968,-28.17287 -27.32342,-39.89544 l 10.13488,-9.658438 c 12.14683,12.806704 22.25241,27.643657 29.8485,43.576539 z"
       id="path3888"
       inkscape:connector-curvature="0"
       sodipodi:nodetypes="ccccc"
       inkscape:transform-center-x="-133.18097"
       inkscape:transform-center-y="-91.567405" />
    <path
       inkscape:transform-center-y="-127.80607"
       inkscape:transform-center-x="-98.993745"
       sodipodi:nodetypes="ccccc"
       inkscape:connector-curvature="0"
       id="path3890"
       d="m -515.52928,-99.258637 c -11.1158,-11.720613 -24.10298,-21.920333 -38.29169,-29.641363 l 6.65989,-12.31451 c 15.50593,8.43347 29.68751,19.55229 41.82946,32.36364 z"
       style="fill:#ff0000;stroke:#ffffff;stroke-width:1.49999976;stroke-linecap:butt;stroke-linejoin:miter;stroke-miterlimit:4;stroke-opacity:1;stroke-dashoffset:0" />
    <path
       style="fill:#008000;stroke:#ffffff;stroke-width:1.49999976;stroke-linecap:butt;stroke-linejoin:miter;stroke-miterlimit:4;stroke-opacity:1;stroke-dashoffset:0"
       d="m -553.75947,-128.90018 c -14.15358,-7.78525 -29.69047,-13.3486 -45.55516,-16.38922 l 2.59967,-13.75656 c 17.33618,3.31875 34.24075,9.19586 49.70357,17.70813 z"
       id="path3892"
       inkscape:connector-curvature="0"
       sodipodi:nodetypes="ccccc"
       inkscape:transform-center-x="-55.85389"
       inkscape:transform-center-y="-151.31913" />
    <path
       inkscape:transform-center-y="-161.16871"
       inkscape:transform-center-x="-5.840255"
       sodipodi:nodetypes="ccccc"
       inkscape:connector-curvature="0"
       id="path3894"
       d="m -599.17409,-145.36704 c -15.86418,-3.04332 -32.60444,-3.72477 -48.63388,-1.72704 l -1.76737,-13.88804 c 17.515,-2.18673 35.56292,-1.5044 52.89669,1.82696 z"
       style="fill:#ff0000;stroke:#ffffff;stroke-width:1.49999976;stroke-linecap:butt;stroke-linejoin:miter;stroke-miterlimit:4;stroke-opacity:1;stroke-dashoffset:0" />
    <path
       style="fill:#008000;stroke:#ffffff;stroke-width:1.49999976;stroke-linecap:butt;stroke-linejoin:miter;stroke-miterlimit:4;stroke-opacity:1;stroke-dashoffset:0"
       d="m -647.95558,-147.02622 c -16.03733,1.93343 -31.72106,6.42364 -46.38032,13.20892 l -6.16186,-12.59047 c 16.01666,-7.41779 33.39872,-12.41798 50.92354,-14.52469 z"
       id="path3896"
       inkscape:connector-curvature="0"
       sodipodi:nodetypes="ccccc"
       inkscape:transform-center-x="44.61395"
       inkscape:transform-center-y="-154.86989" />
    <path
       inkscape:transform-center-y="-133.58012"
       inkscape:transform-center-x="90.97772"
       sodipodi:nodetypes="ccccc"
       inkscape:connector-curvature="0"
       id="path3898"
       d="m -694.43491,-133.7617 c -14.60965,6.89146 -28.29437,16.03502 -40.06643,27.09633 l -9.6131,-10.17789 c 12.86078,-12.08955 27.79212,-22.08004 43.75875,-29.60496 z"
       style="fill:#ff0000;stroke:#ffffff;stroke-width:1.49999976;stroke-linecap:butt;stroke-linejoin:miter;stroke-miterlimit:4;stroke-opacity:1;stroke-dashoffset:0" />
    <path
       style="fill:#008000;stroke:#ffffff;stroke-width:1.49999976;stroke-linecap:butt;stroke-linejoin:miter;stroke-miterlimit:4;stroke-opacity:1;stroke-dashoffset:0"
       d="m -734.4638,-106.58292 c -11.83098,10.998276 -22.30778,23.935643 -30.17003,38.046598 l -12.24742,-6.782466 c 8.58779,-15.420988 19.99557,-29.543522 32.92745,-41.557022 z"
       id="path3900"
       inkscape:connector-curvature="0"
       sodipodi:nodetypes="ccccc"
       inkscape:transform-center-x="126.8294"
       inkscape:transform-center-y="-100.25073" />
    <path
       inkscape:transform-center-y="-56.435735"
       inkscape:transform-center-x="151.11011"
       sodipodi:nodetypes="ccccc"
       inkscape:connector-curvature="0"
       id="path3902"
       d="m -764.49996,-68.462638 c -7.83994,14.123365 -13.80994,30.03603 -16.91188,45.888851 l -13.7464,-2.652865 c 3.38577,-17.32321 9.8736,-34.651211 18.44561,-50.081003 z"
       style="fill:#ff0000;stroke:#ffffff;stroke-width:1.49999976;stroke-linecap:butt;stroke-linejoin:miter;stroke-miterlimit:4;stroke-opacity:1;stroke-dashoffset:0" />
    <path
       style="fill:#008000;stroke:#ffffff;stroke-width:1.49999976;stroke-linecap:butt;stroke-linejoin:miter;stroke-miterlimit:4;stroke-opacity:1;stroke-dashoffset:0"
       d="m -781.38697,-22.626679 c -3.05424,15.8620849 -3.74687,32.601988 -1.76016,48.632801 l -13.9389,1.708154 c -2.17467,-17.516501 -1.48015,-35.5143561 1.86314,-52.845839 z"
       id="path3904"
       inkscape:connector-curvature="0"
       sodipodi:nodetypes="ccccc"
       inkscape:transform-center-x="161.15843"
       inkscape:transform-center-y="-5.9553995" />
    <path
       inkscape:transform-center-y="44.944923"
       inkscape:transform-center-x="154.77839"
       sodipodi:nodetypes="ccccc"
       inkscape:connector-curvature="0"
       id="path3906"
       d="m -783.17535,25.945977 c 1.96784,16.033145 6.54124,32.40244 13.35797,47.047102 l -12.67706,5.940817 c -7.45214,-16.000707 -12.48899,-33.769519 -14.6333,-51.289788 z"
       style="fill:#ff0000;stroke:#ffffff;stroke-width:1.49999976;stroke-linecap:butt;stroke-linejoin:miter;stroke-miterlimit:4;stroke-opacity:1;stroke-dashoffset:0" />
    <path
       style="fill:#008000;stroke:#ffffff;stroke-width:1.49999976;stroke-linecap:butt;stroke-linejoin:miter;stroke-miterlimit:4;stroke-opacity:1;stroke-dashoffset:0"
       d="m -769.89194,72.931299 c 6.84956,14.629343 16.30213,28.687781 27.32965,40.491491 l -10.30471,9.48459 c -12.05263,-12.89539 -22.24926,-28.103541 -29.72838,-44.091681 z"
       id="path3908"
       inkscape:connector-curvature="0"
       sodipodi:nodetypes="ccccc"
       inkscape:transform-center-x="133.83502"
       inkscape:transform-center-y="90.598104" />
    <path
       inkscape:transform-center-y="127.17841"
       inkscape:transform-center-x="99.804555"
       sodipodi:nodetypes="ccccc"
       inkscape:connector-curvature="0"
       id="path3910"
       d="m -742.59407,113.27182 c 11.04022,11.79184 24.31103,22.37213 38.44982,30.18421 l -6.73893,12.27143 c -15.45139,-8.53297 -29.91066,-19.89105 -41.97001,-32.7802 z"
       style="fill:#ff0000;stroke:#ffffff;stroke-width:1.49999976;stroke-linecap:butt;stroke-linejoin:miter;stroke-miterlimit:4;stroke-opacity:1;stroke-dashoffset:0" />
    <path
       style="fill:#008000;stroke:#ffffff;stroke-width:1.49999976;stroke-linecap:butt;stroke-linejoin:miter;stroke-miterlimit:4;stroke-opacity:1;stroke-dashoffset:0"
       d="m -704.15072,143.47432 c 14.12076,7.84462 29.93228,13.37283 45.78407,16.48003 l -2.65742,13.74551 c -17.32209,-3.3915 -34.49911,-9.38834 -49.92606,-17.96548 z"
       id="path3912"
       inkscape:connector-curvature="0"
       sodipodi:nodetypes="ccccc"
       inkscape:transform-center-x="56.485565"
       inkscape:transform-center-y="151.09208" />
    <path
       inkscape:transform-center-y="161.14131"
       inkscape:transform-center-x="6.14622"
       sodipodi:nodetypes="ccccc"
       inkscape:connector-curvature="0"
       id="path3914"
       d="m -658.44384,160.00506 c 15.85859,3.07233 32.34961,3.68418 48.38268,1.71575 l 1.74197,13.89124 c -17.51897,2.15471 -35.41683,1.4896 -52.74449,-1.87346 z"
       style="fill:#ff0000;stroke:#ffffff;stroke-width:1.49999976;stroke-linecap:butt;stroke-linejoin:miter;stroke-miterlimit:4;stroke-opacity:1;stroke-dashoffset:0" />
    <path
       style="fill:#008000;stroke:#ffffff;stroke-width:1.49999976;stroke-linecap:butt;stroke-linejoin:miter;stroke-miterlimit:4;stroke-opacity:1;stroke-dashoffset:0"
       d="m -610.09164,161.70561 c 16.04119,-1.9011 32.03176,-6.26048 46.70466,-13.01622 l 5.88802,12.70167 c -16.03158,7.3855 -33.47302,12.15265 -51.00206,14.22402 z"
       id="path3916"
       inkscape:connector-curvature="0"
       sodipodi:nodetypes="ccccc"
       inkscape:transform-center-x="-44.303045"
       inkscape:transform-center-y="154.95513" />
    <path
       inkscape:transform-center-y="134.26417"
       inkscape:transform-center-x="-89.95353"
       sodipodi:nodetypes="ccccc"
       inkscape:connector-curvature="0"
       id="path3918"
       d="m -563.34706,148.61355 c 14.66241,-6.77846 28.56628,-16.16558 40.42337,-27.13569 l 9.53425,10.25179 c -12.95373,11.98991 -28.11069,22.21433 -44.13494,29.61575 z"
       style="fill:#ff0000;stroke:#ffffff;stroke-width:1.49999976;stroke-linecap:butt;stroke-linejoin:miter;stroke-miterlimit:4;stroke-opacity:1;stroke-dashoffset:0" />
    <path
       style="fill:#008000;stroke:#ffffff;stroke-width:1.49999976;stroke-linecap:butt;stroke-linejoin:miter;stroke-miterlimit:4;stroke-opacity:1;stroke-dashoffset:0"
       d="m -523.03685,121.50647 c 11.80343,-11.02781 22.24824,-23.890921 30.07516,-38.021495 l 12.26435,6.751809 c -8.5492,15.442416 -19.82269,29.393716 -32.7245,41.439506 z"
       id="path3920"
       inkscape:connector-curvature="0"
       sodipodi:nodetypes="ccccc"
       inkscape:transform-center-x="-127.07533"
       inkscape:transform-center-y="99.936658" />
    <path
       inkscape:transform-center-y="55.90718"
       inkscape:transform-center-x="-151.30008"
       sodipodi:nodetypes="ccccc"
       inkscape:connector-curvature="0"
       id="path3922"
       d="m -492.92141,83.520624 c 7.79028,-14.150802 14.15348,-32.118677 17.1997,-47.982294 l 13.75564,2.604546 c -3.32489,17.334997 -10.20093,36.72001 -18.71869,52.179813 z"
       style="fill:#ff0000;stroke:#ffffff;stroke-width:1.49999976;stroke-linecap:butt;stroke-linejoin:miter;stroke-miterlimit:4;stroke-opacity:1;stroke-dashoffset:0" />
    <g
       style="font-size:40px;font-style:normal;font-weight:normal;line-height:125%;letter-spacing:0px;word-spacing:0px;fill:#ffffff;fill-opacity:1;stroke:none;font-family:Sans"
       id="text3931">
      <path
         inkscape:connector-curvature="0"
         d="m -622.67889,-288.13977 0,3.37891 -18.92579,0 c -0.026,-0.84636 0.11068,-1.66016 0.41016,-2.44141 0.48177,-1.28906 1.25325,-2.55859 2.31445,-3.80859 1.0612,-1.25 2.5944,-2.69531 4.59961,-4.33594 3.11197,-2.55207 5.21483,-4.57355 6.3086,-6.06445 1.09373,-1.49087 1.64061,-2.90038 1.64062,-4.22852 -10e-6,-1.39321 -0.49806,-2.56834 -1.49414,-3.52539 -0.99611,-0.95701 -2.29493,-1.43552 -3.89648,-1.43555 -1.69272,3e-5 -3.04689,0.50784 -4.0625,1.52344 -1.01563,1.01565 -1.52996,2.4219 -1.54297,4.21875 l -3.61328,-0.37109 c 0.24739,-2.69529 1.17838,-4.74933 2.79297,-6.16211 1.61457,-1.41274 3.78254,-2.11912 6.5039,-2.11914 2.74738,2e-5 4.92186,0.76174 6.52344,2.28515 1.60154,1.52346 2.40232,3.41148 2.40234,5.66406 -2e-5,1.14586 -0.23439,2.27216 -0.70312,3.37891 -0.46877,1.10679 -1.24676,2.27215 -2.33399,3.49609 -1.08725,1.22398 -2.89389,2.90366 -5.41992,5.03907 -2.10938,1.77084 -3.46355,2.97201 -4.0625,3.60351 -0.59896,0.63152 -1.09375,1.26628 -1.48437,1.9043 z"
         id="path4090" />
      <path
         inkscape:connector-curvature="0"
         d="m -618.88983,-298.88196 c 0,-3.3854 0.3483,-6.11 1.04492,-8.17383 0.69661,-2.06377 1.73177,-3.65557 3.10547,-4.77539 1.37369,-1.11976 3.1022,-1.67966 5.18555,-1.67968 1.53644,2e-5 2.8841,0.30927 4.04296,0.92773 1.15884,0.61852 2.11587,1.51044 2.8711,2.67578 0.75519,1.16539 1.34764,2.58466 1.77734,4.25781 0.42967,1.6732 0.64451,3.92906 0.64453,6.76758 -2e-5,3.35939 -0.34507,6.07097 -1.03515,8.13477 -0.69013,2.0638 -1.72203,3.65885 -3.09571,4.78515 -1.37371,1.12631 -3.10873,1.68946 -5.20507,1.68946 -2.76043,0 -4.9284,-0.98959 -6.50391,-2.96875 -1.88802,-2.38281 -2.83203,-6.26302 -2.83203,-11.64063 z m 3.61328,0 c -10e-6,4.70053 0.55012,7.82878 1.65039,9.38477 1.10025,1.55599 2.45767,2.33398 4.07227,2.33398 1.61457,0 2.97199,-0.78124 4.07226,-2.34375 1.10025,-1.56249 1.65038,-4.68749 1.65039,-9.375 -10e-6,-4.71352 -0.55014,-7.84503 -1.65039,-9.39453 -1.10027,-1.54945 -2.47071,-2.32419 -4.11133,-2.32422 -1.61459,3e-5 -2.90365,0.68362 -3.86718,2.05078 -1.21095,1.74482 -1.81642,4.96747 -1.81641,9.66797 z"
         id="path4092" />
    </g>
    <g
       style="font-size:40px;font-style:normal;font-weight:normal;line-height:125%;letter-spacing:0px;word-spacing:0px;fill:#ffffff;fill-opacity:1;stroke:none;font-family:Sans"
       id="text3935">
      <path
         inkscape:connector-curvature="0"
         d="m -525.52753,-268.21518 -3.51562,0 0,-22.40234 c -0.84637,0.80731 -1.95639,1.6146 -3.33008,2.42187 -1.3737,0.80731 -2.60743,1.41278 -3.70117,1.81641 l 0,-3.39844 c 1.96614,-0.92446 3.68489,-2.04425 5.15625,-3.35937 1.47134,-1.31508 2.51301,-2.59112 3.125,-3.82813 l 2.26562,0 z"
         id="path4087" />
    </g>
    <g
       style="font-size:40px;font-style:normal;font-weight:normal;line-height:125%;letter-spacing:0px;word-spacing:0px;fill:#ffffff;fill-opacity:1;stroke:none;font-family:Sans"
       id="text3939">
      <path
         inkscape:connector-curvature="0"
         d="m -451.30475,-223.86809 -3.51562,0 0,-22.40234 c -0.84637,0.80731 -1.95639,1.6146 -3.33008,2.42187 -1.37371,0.80731 -2.60743,1.41278 -3.70117,1.81641 l 0,-3.39844 c 1.96614,-0.92445 3.68488,-2.04424 5.15625,-3.35937 1.47134,-1.31508 2.51301,-2.59112 3.125,-3.82813 l 2.26562,0 z"
         id="path4082" />
      <path
         inkscape:connector-curvature="0"
         d="m -436.87115,-239.39543 c -1.45834,-0.53384 -2.53907,-1.29556 -3.24219,-2.28516 -0.70313,-0.98956 -1.05469,-2.17446 -1.05469,-3.55469 0,-2.08331 0.74869,-3.83461 2.24609,-5.2539 1.49739,-1.41924 3.48958,-2.12888 5.97657,-2.12891 2.49998,3e-5 4.5117,0.72594 6.03515,2.17774 1.52342,1.45184 2.28514,3.21942 2.28516,5.30273 -2e-5,1.32815 -0.34833,2.48374 -1.04492,3.4668 -0.69664,0.98309 -1.75458,1.74155 -3.17383,2.27539 1.75779,0.57293 3.09568,1.49741 4.01367,2.77344 0.91795,1.27605 1.37693,2.79949 1.37695,4.57031 -2e-5,2.44792 -0.8659,4.50521 -2.59765,6.17187 -1.73179,1.66667 -4.01043,2.5 -6.83594,2.5 -2.82553,0 -5.10417,-0.83658 -6.83594,-2.50976 -1.73177,-1.67318 -2.59766,-3.75976 -2.59765,-6.25977 -10e-6,-1.86197 0.472,-3.42121 1.41601,-4.67773 0.94401,-1.2565 2.28841,-2.11262 4.03321,-2.56836 z m -0.70313,-5.95703 c -1e-5,1.35418 0.43619,2.46095 1.30859,3.32031 0.87239,0.85939 2.0052,1.28908 3.39844,1.28906 1.35416,2e-5 2.46418,-0.42641 3.33008,-1.27929 0.86587,-0.85285 1.29881,-1.89777 1.29883,-3.13477 -2e-5,-1.28904 -0.44598,-2.37302 -1.33789,-3.25195 -0.89194,-0.87888 -2.00197,-1.31834 -3.33008,-1.31836 -1.34116,2e-5 -2.45444,0.42971 -3.33984,1.28906 -0.88543,0.8594 -1.32814,1.88804 -1.32813,3.08594 z m -1.13281,13.22265 c -1e-5,1.00261 0.23762,1.97267 0.71289,2.91016 0.47525,0.9375 1.18163,1.66341 2.11914,2.17773 0.93749,0.51433 1.9466,0.77149 3.02734,0.77149 1.67968,0 3.06639,-0.54036 4.16016,-1.6211 1.09373,-1.08072 1.64061,-2.45442 1.64062,-4.12109 -10e-6,-1.6927 -0.56316,-3.09244 -1.68945,-4.19922 -1.12632,-1.10676 -2.53582,-1.66014 -4.22851,-1.66015 -1.65366,1e-5 -3.0241,0.54688 -4.11133,1.64062 -1.08725,1.09376 -1.63087,2.46095 -1.63086,4.10156 z"
         id="path4084" />
    </g>
    <g
       style="font-size:40px;font-style:normal;font-weight:normal;line-height:125%;letter-spacing:0px;word-spacing:0px;fill:#ffffff;fill-opacity:1;stroke:none;font-family:Sans"
       id="text3943">
      <path
         inkscape:connector-curvature="0"
         d="m -369.59998,-154.82318 0,-6.85547 -12.42187,0 0,-3.22266 13.06641,-18.55468 2.87109,0 0,18.55468 3.86719,0 0,3.22266 -3.86719,0 0,6.85547 z m 0,-10.07813 0,-12.91015 -8.96484,12.91015 z"
         id="path4079" />
    </g>
    <g
       style="font-size:40px;font-style:normal;font-weight:normal;line-height:125%;letter-spacing:0px;word-spacing:0px;fill:#ffffff;fill-opacity:1;stroke:none;font-family:Sans"
       id="text3947">
      <path
         inkscape:connector-curvature="0"
         d="m -339.10248,-63.813404 -3.51562,0 0,-22.402344 c -0.84637,0.807313 -1.95639,1.614604 -3.33008,2.421875 -1.37371,0.807311 -2.60743,1.412779 -3.70117,1.816406 l 0,-3.398437 c 1.96614,-0.924457 3.68488,-2.044247 5.15625,-3.359375 1.47134,-1.315078 2.51301,-2.591118 3.125,-3.828125 l 2.26562,0 z"
         id="path4074" />
      <path
         inkscape:connector-curvature="0"
         d="m -330.05951,-71.371998 3.51563,-0.46875 c 0.40364,1.992194 1.09048,3.427739 2.06054,4.306641 0.97005,0.878909 2.15169,1.318362 3.54492,1.318359 1.65364,3e-6 3.05012,-0.572914 4.18946,-1.71875 1.1393,-1.145828 1.70897,-2.565097 1.70898,-4.257812 -10e-6,-1.614574 -0.52736,-2.945953 -1.58203,-3.994141 -1.0547,-1.048164 -2.39585,-1.572252 -4.02344,-1.572266 -0.66407,1.4e-5 -1.49089,0.130223 -2.48047,0.390625 l 0.39063,-3.085937 c 0.23437,0.02606 0.42317,0.03908 0.56641,0.03906 1.49738,1.7e-5 2.84504,-0.390608 4.04296,-1.171875 1.19791,-0.781231 1.79686,-1.985657 1.79688,-3.613281 -2e-5,-1.28904 -0.43621,-2.356747 -1.30859,-3.203125 -0.87241,-0.846329 -1.99871,-1.269505 -3.37891,-1.269531 -1.3672,2.6e-5 -2.50652,0.429713 -3.41797,1.289062 -0.91146,0.859399 -1.4974,2.14846 -1.75781,3.867188 l -3.51563,-0.625 c 0.42969,-2.356747 1.40625,-4.182917 2.92969,-5.478516 1.52343,-1.295545 3.41796,-1.94333 5.68359,-1.943359 1.56249,2.9e-5 3.00129,0.335315 4.31641,1.005859 1.31509,0.6706 2.32095,1.585313 3.01758,2.744141 0.69659,1.158878 1.0449,2.389345 1.04492,3.691406 -2e-5,1.236999 -0.33205,2.3633 -0.99609,3.378906 -0.66408,1.015642 -1.64715,1.822933 -2.94922,2.421875 1.69269,0.390641 3.00779,1.201187 3.94531,2.431641 0.93748,1.230481 1.40623,2.770193 1.40625,4.619141 -2e-5,2.500006 -0.91148,4.619144 -2.73437,6.357422 -1.82294,1.738281 -4.12762,2.607421 -6.91407,2.607421 -2.51303,0 -4.59961,-0.748697 -6.25976,-2.246093 -1.66016,-1.497393 -2.60743,-3.437495 -2.8418,-5.820313 z"
         id="path4076" />
    </g>
    <g
       style="font-size:40px;font-style:normal;font-weight:normal;line-height:125%;letter-spacing:0px;word-spacing:0px;fill:#ffffff;fill-opacity:1;stroke:none;font-family:Sans"
       id="text3951">
      <path
         inkscape:connector-curvature="0"
         d="m -308.24673,9.627243 -3.4961,0.2734375 c -0.31251,-1.3801856 -0.75522,-2.3827887 -1.32812,-3.0078125 -0.95054,-1.0025788 -2.12241,-1.5038803 -3.51563,-1.5039062 -1.1198,2.59e-5 -2.10287,0.3125255 -2.94922,0.9375 -1.10678,0.8073158 -1.97917,1.9857 -2.61718,3.5351562 -0.63803,1.549499 -0.97006,3.756528 -0.9961,6.621094 0.84635,-1.289047 1.88151,-2.246077 3.10547,-2.871094 1.22395,-0.624982 2.5065,-0.937481 3.84766,-0.9375 2.34373,1.9e-5 4.33917,0.862648 5.98632,2.587891 1.64712,1.725274 2.47069,3.95509 2.47071,6.689453 -2e-5,1.796882 -0.38739,3.466802 -1.16211,5.009765 -0.77476,1.542972 -1.83921,2.724611 -3.19336,3.544922 -1.35418,0.820313 -2.89064,1.230469 -4.60938,1.230469 -2.92969,0 -5.31901,-1.077473 -7.16796,-3.232422 -1.84897,-2.154943 -2.77344,-5.706372 -2.77344,-10.654297 0,-5.533835 1.02213,-9.5572684 3.0664,-12.0703122 1.78385,-2.1874724 4.18619,-3.2812213 7.20704,-3.28125 2.25259,2.87e-5 4.09829,0.6315385 5.5371,1.8945312 1.43879,1.2630465 2.30142,3.0078364 2.5879,5.234375 z m -14.35547,12.34375 c -1e-5,1.210946 0.25715,2.369799 0.77148,3.476563 0.51432,1.106775 1.23372,1.949873 2.1582,2.529296 0.92447,0.57943 1.89453,0.869143 2.91016,0.869141 1.48436,2e-6 2.7604,-0.598955 3.82813,-1.796875 1.06769,-1.197911 1.60154,-2.825514 1.60156,-4.882812 -2e-5,-1.979156 -0.52736,-3.538399 -1.58203,-4.677735 -1.05471,-1.139308 -2.38283,-1.708969 -3.98438,-1.708984 -1.58855,1.5e-5 -2.9362,0.569676 -4.04297,1.708984 -1.10677,1.139336 -1.66016,2.633475 -1.66015,4.482422 z"
         id="path4071" />
    </g>
    <g
       style="font-size:40px;font-style:normal;font-weight:normal;line-height:125%;letter-spacing:0px;word-spacing:0px;fill:#ffffff;fill-opacity:1;stroke:none;font-family:Sans"
       id="text3955">
      <path
         inkscape:connector-curvature="0"
         d="m -346.01672,125.95622 -3.51563,0 0,-22.40234 c -0.84636,0.80731 -1.95639,1.6146 -3.33008,2.42187 -1.3737,0.80731 -2.60742,1.41278 -3.70117,1.81641 l 0,-3.39844 c 1.96614,-0.92445 3.68489,-2.04424 5.15625,-3.35937 1.47134,-1.31508 2.51301,-2.591121 3.125,-3.828127 l 2.26563,0 z"
         id="path4066" />
      <path
         inkscape:connector-curvature="0"
         d="m -336.99329,111.83513 c 0,-3.3854 0.34831,-6.11001 1.04493,-8.17383 0.69661,-2.06378 1.73176,-3.65557 3.10546,-4.77539 1.3737,-1.119763 3.10221,-1.679659 5.18555,-1.679687 1.53645,2.8e-5 2.8841,0.309273 4.04297,0.927734 1.15884,0.618517 2.11587,1.510443 2.87109,2.675783 0.75519,1.16539 1.34764,2.58466 1.77735,4.25781 0.42967,1.6732 0.64451,3.92905 0.64453,6.76758 -2e-5,3.35938 -0.34507,6.07097 -1.03516,8.13476 -0.69012,2.06381 -1.72202,3.65886 -3.0957,4.78516 -1.37371,1.1263 -3.10874,1.68945 -5.20508,1.68945 -2.76042,0 -4.92839,-0.98958 -6.5039,-2.96875 -1.88803,-2.3828 -2.83204,-6.26301 -2.83204,-11.64062 z m 3.61329,0 c -1e-5,4.70053 0.55012,7.82878 1.65039,9.38476 1.10025,1.556 2.45767,2.33399 4.07226,2.33399 1.61457,0 2.97199,-0.78125 4.07227,-2.34375 1.10024,-1.56249 1.65037,-4.68749 1.65039,-9.375 -2e-5,-4.71352 -0.55015,-7.84503 -1.65039,-9.39453 -1.10028,-1.54946 -2.47072,-2.3242 -4.11133,-2.32422 -1.61459,2e-5 -2.90366,0.68362 -3.86719,2.05078 -1.21094,1.74481 -1.81641,4.96747 -1.8164,9.66797 z"
         id="path4068" />
    </g>
    <g
       style="font-size:40px;font-style:normal;font-weight:normal;line-height:125%;letter-spacing:0px;word-spacing:0px;fill:#ffffff;fill-opacity:1;stroke:none;font-family:Sans"
       id="text3959">
      <path
         inkscape:connector-curvature="0"
         d="m -392.22913,210.92017 -3.51562,0 0,-22.40235 c -0.84637,0.80732 -1.95639,1.61461 -3.33008,2.42188 -1.3737,0.80731 -2.60743,1.41278 -3.70117,1.8164 l 0,-3.39843 c 1.96614,-0.92446 3.68489,-2.04425 5.15625,-3.35938 1.47134,-1.31508 2.51301,-2.59112 3.125,-3.82812 l 2.26562,0 z"
         id="path4061" />
      <path
         inkscape:connector-curvature="0"
         d="m -383.20569,203.42017 3.69141,-0.3125 c 0.27343,1.79688 0.90819,3.14779 1.90429,4.05273 0.99609,0.90495 2.19726,1.35742 3.60352,1.35742 1.6927,0 3.12499,-0.63802 4.29688,-1.91406 1.17185,-1.27604 1.75779,-2.96874 1.75781,-5.07813 -2e-5,-2.00519 -0.56317,-3.58722 -1.68946,-4.74609 -1.12631,-1.15884 -2.60092,-1.73826 -4.42382,-1.73828 -1.13283,2e-5 -2.15496,0.25718 -3.06641,0.77148 -0.91146,0.51434 -1.62761,1.18166 -2.14844,2.00196 l -3.30078,-0.42969 2.77344,-14.70703 14.23828,0 0,3.35937 -11.42578,0 -1.54297,7.69532 c 1.71874,-1.1979 3.52213,-1.79686 5.41016,-1.79688 2.49998,2e-5 4.60936,0.8659 6.32812,2.59766 1.71873,1.73178 2.57811,3.95834 2.57813,6.67968 -2e-5,2.59116 -0.75523,4.83074 -2.26563,6.71875 -1.83595,2.31771 -4.34246,3.47657 -7.51953,3.47657 -2.60417,0 -4.72982,-0.72917 -6.37695,-2.1875 -1.64714,-1.45833 -2.5879,-3.39192 -2.82227,-5.80078 z"
         id="path4063" />
    </g>
    <g
       style="font-size:40px;font-style:normal;font-weight:normal;line-height:125%;letter-spacing:0px;word-spacing:0px;fill:#ffffff;fill-opacity:1;stroke:none;font-family:Sans"
       id="text3963">
      <path
         inkscape:connector-curvature="0"
         d="m -445.07349,276.00739 0,3.3789 -18.92578,0 c -0.026,-0.84635 0.11068,-1.66015 0.41016,-2.4414 0.48177,-1.28906 1.25325,-2.55859 2.31445,-3.8086 1.06119,-1.24999 2.5944,-2.6953 4.59961,-4.33594 3.11197,-2.55207 5.21483,-4.57355 6.30859,-6.06445 1.09374,-1.49087 1.64061,-2.90037 1.64063,-4.22851 -2e-5,-1.39321 -0.49806,-2.56834 -1.49414,-3.5254 -0.99611,-0.957 -2.29494,-1.43552 -3.89649,-1.43554 -1.69271,2e-5 -3.04688,0.50784 -4.0625,1.52344 -1.01563,1.01564 -1.52995,2.42189 -1.54296,4.21875 l -3.61329,-0.3711 c 0.2474,-2.69529 1.17839,-4.74932 2.79297,-6.16211 1.61458,-1.41273 3.78255,-2.11911 6.50391,-2.11914 2.74738,3e-5 4.92186,0.76175 6.52344,2.28516 1.60154,1.52346 2.40232,3.41148 2.40234,5.66406 -2e-5,1.14585 -0.23439,2.27215 -0.70312,3.37891 -0.46877,1.10678 -1.24677,2.27215 -2.33399,3.49609 -1.08725,1.22397 -2.89389,2.90366 -5.41992,5.03906 -2.10938,1.77084 -3.46355,2.97201 -4.0625,3.60352 -0.59897,0.63151 -1.09376,1.26628 -1.48438,1.9043 z"
         id="path4058" />
    </g>
    <g
       style="font-size:40px;font-style:normal;font-weight:normal;line-height:125%;letter-spacing:0px;word-spacing:0px;fill:#ffffff;fill-opacity:1;stroke:none;font-family:Sans"
       id="text3967">
      <path
         inkscape:connector-curvature="0"
         d="m -551.83356,322.73645 -3.51562,0 0,-22.40234 c -0.84637,0.80731 -1.95639,1.6146 -3.33008,2.42187 -1.3737,0.80731 -2.60743,1.41278 -3.70117,1.81641 l 0,-3.39844 c 1.96614,-0.92446 3.68489,-2.04425 5.15625,-3.35937 1.47134,-1.31508 2.51301,-2.59112 3.125,-3.82813 l 2.26562,0 z"
         id="path4053" />
      <path
         inkscape:connector-curvature="0"
         d="m -542.57574,297.85364 0,-3.37891 18.53515,0 0,2.73438 c -1.82293,1.94012 -3.62957,4.51825 -5.41992,7.73437 -1.79038,3.21616 -3.17384,6.52345 -4.15039,9.92188 -0.70314,2.39584 -1.15235,5.01953 -1.34766,7.87109 l -3.61328,0 c 0.0391,-2.2526 0.48177,-4.97395 1.32813,-8.16406 0.84634,-3.1901 2.06053,-6.26626 3.64257,-9.22852 1.58202,-2.96222 3.26496,-5.45896 5.04883,-7.49023 z"
         id="path4055" />
    </g>
    <g
       style="font-size:40px;font-style:normal;font-weight:normal;line-height:125%;letter-spacing:0px;word-spacing:0px;fill:#ffffff;fill-opacity:1;stroke:none;font-family:Sans"
       id="text3971">
      <path
         inkscape:connector-curvature="0"
         d="m -650.05231,322.31702 3.51563,-0.46875 c 0.40364,1.99219 1.09049,3.42774 2.06054,4.30664 0.97005,0.87891 2.15169,1.31836 3.54493,1.31836 1.65363,0 3.05011,-0.57292 4.18945,-1.71875 1.13931,-1.14583 1.70897,-2.5651 1.70898,-4.25782 -10e-6,-1.61457 -0.52736,-2.94595 -1.58203,-3.99414 -1.0547,-1.04816 -2.39584,-1.57225 -4.02343,-1.57226 -0.66408,1e-5 -1.4909,0.13022 -2.48047,0.39062 l 0.39062,-3.08593 c 0.23437,0.026 0.42317,0.0391 0.56641,0.0391 1.49738,10e-6 2.84504,-0.39061 4.04297,-1.17188 1.1979,-0.78123 1.79686,-1.98565 1.79687,-3.61328 -1e-5,-1.28904 -0.43621,-2.35675 -1.30859,-3.20312 -0.87241,-0.84633 -1.99871,-1.26951 -3.37891,-1.26953 -1.3672,2e-5 -2.50652,0.42971 -3.41797,1.28906 -0.91146,0.8594 -1.4974,2.14846 -1.75781,3.86719 l -3.51562,-0.625 c 0.42968,-2.35675 1.40624,-4.18292 2.92968,-5.47852 1.52343,-1.29555 3.41796,-1.94333 5.6836,-1.94336 1.56248,3e-5 3.00129,0.33532 4.3164,1.00586 1.31509,0.6706 2.32095,1.58531 3.01758,2.74414 0.6966,1.15888 1.0449,2.38935 1.04492,3.69141 -2e-5,1.237 -0.33205,2.3633 -0.99609,3.3789 -0.66408,1.01564 -1.64715,1.82294 -2.94922,2.42188 1.69269,0.39064 3.00779,1.20118 3.94531,2.43164 0.93748,1.23048 1.40623,2.77019 1.40625,4.61914 -2e-5,2.50001 -0.91147,4.61914 -2.73437,6.35742 -1.82293,1.73828 -4.12762,2.60742 -6.91406,2.60742 -2.51303,0 -4.59962,-0.74869 -6.25977,-2.24609 -1.66016,-1.49739 -2.60742,-3.4375 -2.8418,-5.82031 z"
         id="path4050" />
    </g>
    <g
       style="font-size:40px;font-style:normal;font-weight:normal;line-height:125%;letter-spacing:0px;word-spacing:0px;fill:#ffffff;fill-opacity:1;stroke:none;font-family:Sans"
       id="text3975">
      <path
         inkscape:connector-curvature="0"
         d="m -741.76385,310.86978 -3.51563,0 0,-22.40234 c -0.84636,0.80731 -1.95639,1.6146 -3.33008,2.42187 -1.3737,0.80731 -2.60743,1.41278 -3.70117,1.81641 l 0,-3.39844 c 1.96614,-0.92446 3.68489,-2.04425 5.15625,-3.35937 1.47134,-1.31508 2.51301,-2.59112 3.125,-3.82813 l 2.26563,0 z"
         id="path4045" />
      <path
         inkscape:connector-curvature="0"
         d="m -732.21307,304.24869 3.3789,-0.3125 c 0.28645,1.58854 0.83333,2.74089 1.64063,3.45703 0.80728,0.71615 1.84244,1.07422 3.10547,1.07422 1.08071,0 2.02798,-0.2474 2.84179,-0.74219 0.81379,-0.49479 1.48111,-1.15559 2.00196,-1.98242 0.52081,-0.82682 0.95701,-1.94335 1.30859,-3.34961 0.35155,-1.40624 0.52733,-2.83853 0.52734,-4.29688 -10e-6,-0.15623 -0.007,-0.39061 -0.0195,-0.70312 -0.70314,1.1198 -1.66342,2.02801 -2.88086,2.72461 -1.21746,0.69662 -2.53582,1.04493 -3.95507,1.04492 -2.3698,10e-6 -4.37501,-0.85936 -6.01563,-2.57812 -1.64063,-1.71874 -2.46094,-3.98436 -2.46094,-6.79688 0,-2.90362 0.85612,-5.24086 2.56836,-7.01172 1.71224,-1.7708 3.85742,-2.65622 6.43555,-2.65625 1.86197,3e-5 3.56444,0.50133 5.10742,1.50391 1.54295,1.00263 2.71483,2.43166 3.51563,4.28711 0.80076,1.85549 1.20115,4.54103 1.20117,8.05664 -2e-5,3.65886 -0.39716,6.57227 -1.19141,8.74023 -0.79429,2.16797 -1.97593,3.81836 -3.54492,4.95117 -1.56903,1.13282 -3.40822,1.69922 -5.51758,1.69922 -2.23959,0 -4.06902,-0.62174 -5.48828,-1.86523 -1.41927,-1.24349 -2.27214,-2.99153 -2.55859,-5.24414 z m 14.39453,-12.63672 c -2e-5,-2.01821 -0.53713,-3.61977 -1.61133,-4.80469 -1.07423,-1.18487 -2.36655,-1.77732 -3.87695,-1.77734 -1.56251,2e-5 -2.92319,0.63804 -4.08203,1.91406 -1.15887,1.27606 -1.73829,2.92971 -1.73829,4.96094 0,1.82293 0.55013,3.30405 1.65039,4.44336 1.10026,1.13933 2.45768,1.70899 4.07227,1.70898 1.62759,1e-5 2.96548,-0.56965 4.01367,-1.70898 1.04816,-1.13931 1.57225,-2.71808 1.57227,-4.73633 z"
         id="path4047" />
    </g>
    <g
       style="font-size:40px;font-style:normal;font-weight:normal;line-height:125%;letter-spacing:0px;word-spacing:0px;fill:#ffffff;fill-opacity:1;stroke:none;font-family:Sans"
       id="text3979">
      <path
         inkscape:connector-curvature="0"
         d="m -826.22894,240.25696 0,-3.37891 18.53515,0 0,2.73438 c -1.82293,1.94012 -3.62957,4.51825 -5.41992,7.73437 -1.79038,3.21616 -3.17384,6.52345 -4.15039,9.92188 -0.70313,2.39584 -1.15235,5.01953 -1.34766,7.87109 l -3.61328,0 c 0.0391,-2.2526 0.48177,-4.97395 1.32813,-8.16406 0.84634,-3.19009 2.06054,-6.26626 3.64258,-9.22852 1.58202,-2.96222 3.26496,-5.45896 5.04882,-7.49023 z"
         id="path4042" />
    </g>
    <g
       style="font-size:40px;font-style:normal;font-weight:normal;line-height:125%;letter-spacing:0px;word-spacing:0px;fill:#ffffff;fill-opacity:1;stroke:none;font-family:Sans"
       id="text3983">
      <path
         inkscape:connector-curvature="0"
         d="m -892.23523,192.84662 -3.51562,0 0,-22.40235 c -0.84637,0.80732 -1.95639,1.61461 -3.33008,2.42188 -1.37371,0.80731 -2.60743,1.41278 -3.70117,1.81641 l 0,-3.39844 c 1.96614,-0.92446 3.68488,-2.04425 5.15625,-3.35938 1.47134,-1.31507 2.513,-2.59111 3.125,-3.82812 l 2.26562,0 z"
         id="path4037" />
      <path
         inkscape:connector-curvature="0"
         d="m -864.9696,171.22552 -3.4961,0.27344 c -0.31251,-1.38018 -0.75522,-2.38279 -1.32812,-3.00781 -0.95054,-1.00258 -2.12241,-1.50388 -3.51563,-1.50391 -1.1198,3e-5 -2.10287,0.31253 -2.94922,0.9375 -1.10678,0.80732 -1.97917,1.9857 -2.61718,3.53516 -0.63803,1.5495 -0.97006,3.75653 -0.9961,6.62109 0.84635,-1.28904 1.88151,-2.24607 3.10547,-2.87109 1.22395,-0.62498 2.5065,-0.93748 3.84766,-0.9375 2.34373,2e-5 4.33917,0.86265 5.98632,2.58789 1.64712,1.72528 2.47069,3.95509 2.47071,6.68945 -2e-5,1.79689 -0.38739,3.46681 -1.16211,5.00977 -0.77476,1.54297 -1.83921,2.72461 -3.19336,3.54492 -1.35418,0.82031 -2.89064,1.23047 -4.60938,1.23047 -2.92969,0 -5.31901,-1.07747 -7.16796,-3.23242 -1.84897,-2.15494 -2.77344,-5.70637 -2.77344,-10.6543 0,-5.53383 1.02213,-9.55727 3.0664,-12.07031 1.78385,-2.18747 4.18619,-3.28122 7.20704,-3.28125 2.25259,3e-5 4.09829,0.63154 5.5371,1.89453 1.43879,1.26305 2.30142,3.00784 2.5879,5.23437 z m -14.35547,12.34375 c -10e-6,1.21095 0.25715,2.3698 0.77148,3.47657 0.51432,1.10677 1.23372,1.94987 2.1582,2.52929 0.92447,0.57943 1.89453,0.86915 2.91016,0.86914 1.48436,1e-5 2.7604,-0.59895 3.82813,-1.79687 1.06769,-1.19791 1.60154,-2.82551 1.60156,-4.88281 -2e-5,-1.97916 -0.52736,-3.5384 -1.58203,-4.67774 -1.0547,-1.1393 -2.38283,-1.70897 -3.98438,-1.70898 -1.58855,1e-5 -2.9362,0.56968 -4.04297,1.70898 -1.10677,1.13934 -1.66016,2.63348 -1.66015,4.48242 z"
         id="path4039" />
    </g>
    <g
       style="font-size:40px;font-style:normal;font-weight:normal;line-height:125%;letter-spacing:0px;word-spacing:0px;fill:#ffffff;fill-opacity:1;stroke:none;font-family:Sans"
       id="text3987">
      <path
         inkscape:connector-curvature="0"
         d="m -927.9812,92.966614 c -1.45834,-0.533838 -2.53907,-1.295556 -3.24219,-2.285156 -0.70313,-0.989565 -1.05469,-2.17446 -1.05469,-3.554688 0,-2.08331 0.7487,-3.83461 2.2461,-5.253906 1.49739,-1.419243 3.48957,-2.128878 5.97656,-2.128906 2.49999,2.8e-5 4.5117,0.725939 6.03516,2.177734 1.52342,1.451848 2.28513,3.219424 2.28515,5.302734 -2e-5,1.328145 -0.34832,2.483743 -1.04492,3.466797 -0.69663,0.98309 -1.75457,1.741553 -3.17383,2.275391 1.7578,0.572931 3.09569,1.49741 4.01367,2.773437 0.91795,1.276053 1.37694,2.799489 1.37696,4.570309 -2e-5,2.44793 -0.86591,4.50522 -2.59766,6.17188 -1.73179,1.66667 -4.01043,2.5 -6.83594,2.5 -2.82553,0 -5.10417,-0.83659 -6.83593,-2.50977 -1.73178,-1.67317 -2.59766,-3.75976 -2.59766,-6.25976 0,-1.861972 0.472,-3.421215 1.41602,-4.677737 0.944,-1.256496 2.2884,-2.112615 4.0332,-2.568359 z m -0.70313,-5.957031 c 0,1.354186 0.43619,2.460956 1.3086,3.320312 0.87238,0.859392 2.0052,1.289079 3.39844,1.289063 1.35415,1.6e-5 2.46417,-0.426415 3.33007,-1.279297 0.86587,-0.852846 1.29882,-1.897767 1.29883,-3.134766 -10e-6,-1.28904 -0.44598,-2.373023 -1.33789,-3.251953 -0.89194,-0.878881 -2.00196,-1.318334 -3.33008,-1.318359 -1.34115,2.5e-5 -2.45443,0.429712 -3.33984,1.289062 -0.88542,0.859399 -1.32813,1.888044 -1.32813,3.085938 z m -1.13281,13.222657 c 0,1.00261 0.23763,1.97266 0.71289,2.91016 0.47526,0.9375 1.18164,1.66341 2.11914,2.17773 0.93749,0.51432 1.94661,0.77149 3.02735,0.77148 1.67967,1e-5 3.06639,-0.54036 4.16015,-1.62109 1.09374,-1.08072 1.64061,-2.45442 1.64063,-4.12109 -2e-5,-1.692702 -0.56317,-3.09244 -1.68946,-4.199222 -1.12631,-1.106758 -2.53582,-1.660143 -4.22851,-1.660157 -1.65366,1.4e-5 -3.0241,0.546889 -4.11133,1.640625 -1.08724,1.093762 -1.63086,2.460948 -1.63086,4.101564 z"
         id="path4034" />
    </g>
    <g
       style="font-size:40px;font-style:normal;font-weight:normal;line-height:125%;letter-spacing:0px;word-spacing:0px;fill:#ffffff;fill-opacity:1;stroke:none;font-family:Sans"
       id="text3995">
      <path
         inkscape:connector-curvature="0"
         d="m -943.52869,12.53171 -3.51562,0 0,-22.4023441 c -0.84637,0.8073133 -1.95639,1.6146041 -3.33008,2.421875 -1.3737,0.8073109 -2.60743,1.412779 -3.70117,1.8164063 l 0,-3.3984375 c 1.96614,-0.9244567 3.68489,-2.0442477 5.15625,-3.3593747 1.47134,-1.315078 2.51301,-2.591119 3.125,-3.828125 l 2.26562,0 z"
         id="path4029" />
      <path
         inkscape:connector-curvature="0"
         d="m -921.26306,12.53171 -3.51563,0 0,-22.4023441 c -0.84636,0.8073133 -1.95639,1.6146041 -3.33007,2.421875 -1.37371,0.8073109 -2.60743,1.412779 -3.70118,1.8164063 l 0,-3.3984375 c 1.96614,-0.9244567 3.68489,-2.0442477 5.15625,-3.3593747 1.47135,-1.315078 2.51301,-2.591119 3.125,-3.828125 l 2.26563,0 z"
         id="path4031" />
    </g>
    <g
       style="font-size:40px;font-style:normal;font-weight:normal;line-height:125%;letter-spacing:0px;word-spacing:0px;fill:#ffffff;fill-opacity:1;stroke:none;font-family:Sans"
       id="text3999">
      <path
         inkscape:connector-curvature="0"
         d="m -926.42023,-82.819252 -3.51562,0 0,-22.402348 c -0.84637,0.80732 -1.95639,1.61461 -3.33008,2.42188 -1.3737,0.80731 -2.60743,1.41278 -3.70117,1.81641 l 0,-3.39844 c 1.96614,-0.92446 3.68489,-2.04425 5.15625,-3.35938 1.47134,-1.31507 2.51301,-2.59112 3.125,-3.82812 l 2.26562,0 z"
         id="path4024" />
      <path
         inkscape:connector-curvature="0"
         d="m -906.12726,-82.819252 0,-6.855469 -12.42187,0 0,-3.222656 13.0664,-18.554683 2.8711,0 0,18.554683 3.86718,0 0,3.222656 -3.86718,0 0,6.855469 z m 0,-10.078125 0,-12.910153 -8.96484,12.910153 z"
         id="path4026" />
    </g>
    <g
       style="font-size:40px;font-style:normal;font-weight:normal;line-height:125%;letter-spacing:0px;word-spacing:0px;fill:#ffffff;fill-opacity:1;stroke:none;font-family:Sans"
       id="text4003">
      <path
         inkscape:connector-curvature="0"
         d="m -881.40985,-175.78685 3.37891,-0.3125 c 0.28645,1.58855 0.83332,2.74089 1.64062,3.45703 0.80728,0.71615 1.84244,1.07422 3.10547,1.07422 1.08072,0 2.02798,-0.24739 2.8418,-0.74219 0.81378,-0.49479 1.4811,-1.15559 2.00195,-1.98242 0.52082,-0.82682 0.95701,-1.94335 1.30859,-3.34961 0.35155,-1.40624 0.52733,-2.83853 0.52735,-4.29687 -2e-5,-0.15624 -0.007,-0.39062 -0.0195,-0.70313 -0.70315,1.11981 -1.66343,2.02801 -2.88086,2.72461 -1.21746,0.69663 -2.53582,1.04493 -3.95508,1.04492 -2.3698,1e-5 -4.37501,-0.85936 -6.01563,-2.57812 -1.64062,-1.71874 -2.46094,-3.98436 -2.46093,-6.79688 -1e-5,-2.90362 0.85611,-5.24086 2.56835,-7.01172 1.71224,-1.7708 3.85742,-2.65622 6.43555,-2.65625 1.86197,3e-5 3.56444,0.50133 5.10742,1.50391 1.54295,1.00263 2.71483,2.43167 3.51563,4.28711 0.80076,1.85549 1.20115,4.54103 1.20117,8.05664 -2e-5,3.65887 -0.39716,6.57227 -1.19141,8.74023 -0.79429,2.16798 -1.97592,3.81837 -3.54492,4.95118 -1.56902,1.13281 -3.40821,1.69921 -5.51758,1.69922 -2.23959,-1e-5 -4.06901,-0.62175 -5.48828,-1.86524 -1.41927,-1.24349 -2.27214,-2.99153 -2.55859,-5.24414 z m 14.39453,-12.63672 c -2e-5,-2.01821 -0.53713,-3.61977 -1.61133,-4.80469 -1.07423,-1.18487 -2.36655,-1.77731 -3.87695,-1.77734 -1.56251,3e-5 -2.92319,0.63805 -4.08203,1.91406 -1.15886,1.27607 -1.73829,2.92971 -1.73828,4.96094 -1e-5,1.82293 0.55012,3.30405 1.65039,4.44336 1.10025,1.13934 2.45767,1.709 4.07226,1.70898 1.62759,2e-5 2.96548,-0.56964 4.01367,-1.70898 1.04817,-1.13931 1.57225,-2.71808 1.57227,-4.73633 z"
         id="path4021" />
    </g>
    <g
       style="font-size:40px;font-style:normal;font-weight:normal;line-height:125%;letter-spacing:0px;word-spacing:0px;fill:#ffffff;fill-opacity:1;stroke:none;font-family:Sans"
       id="text4007">
      <path
         inkscape:connector-curvature="0"
         d="m -810.48743,-235.79906 -3.51562,0 0,-22.40234 c -0.84637,0.80731 -1.95639,1.6146 -3.33008,2.42187 -1.3737,0.80732 -2.60743,1.41278 -3.70117,1.81641 l 0,-3.39844 c 1.96614,-0.92445 3.68489,-2.04424 5.15625,-3.35937 1.47134,-1.31508 2.51301,-2.59112 3.125,-3.82813 l 2.26562,0 z"
         id="path4016" />
      <path
         inkscape:connector-curvature="0"
         d="m -782.98743,-239.17796 0,3.3789 -18.92578,0 c -0.026,-0.84635 0.11068,-1.66015 0.41016,-2.4414 0.48177,-1.28906 1.25325,-2.55859 2.31445,-3.8086 1.06119,-1.24999 2.5944,-2.6953 4.59961,-4.33593 3.11197,-2.55207 5.21483,-4.57356 6.30859,-6.06446 1.09374,-1.49086 1.64061,-2.90037 1.64063,-4.22851 -2e-5,-1.39321 -0.49806,-2.56834 -1.49414,-3.52539 -0.99611,-0.95701 -2.29494,-1.43552 -3.89649,-1.43555 -1.69271,3e-5 -3.04688,0.50784 -4.0625,1.52344 -1.01563,1.01565 -1.52995,2.42189 -1.54296,4.21875 l -3.61329,-0.3711 c 0.2474,-2.69529 1.17839,-4.74932 2.79297,-6.16211 1.61458,-1.41273 3.78255,-2.11911 6.50391,-2.11914 2.74738,3e-5 4.92186,0.76175 6.52344,2.28516 1.60154,1.52346 2.40232,3.41148 2.40234,5.66406 -2e-5,1.14585 -0.23439,2.27216 -0.70312,3.37891 -0.46877,1.10679 -1.24677,2.27215 -2.33399,3.49609 -1.08725,1.22397 -2.89389,2.90366 -5.41992,5.03906 -2.10939,1.77084 -3.46355,2.97202 -4.0625,3.60352 -0.59897,0.63151 -1.09376,1.26628 -1.48438,1.9043 z"
         id="path4018" />
    </g>
    <g
       style="font-size:40px;font-style:normal;font-weight:normal;line-height:125%;letter-spacing:0px;word-spacing:0px;fill:#ffffff;fill-opacity:1;stroke:none;font-family:Sans"
       id="text4011">
      <path
         inkscape:connector-curvature="0"
         d="m -722.91162,-283.56204 3.69141,-0.3125 c 0.27343,1.79688 0.90819,3.14779 1.90429,4.05273 0.99609,0.90495 2.19726,1.35743 3.60352,1.35742 1.69269,10e-6 3.12498,-0.63801 4.29687,-1.91406 1.17186,-1.27603 1.7578,-2.96874 1.75782,-5.07812 -2e-5,-2.0052 -0.56317,-3.58723 -1.68946,-4.7461 -1.12631,-1.15884 -2.60092,-1.73826 -4.42383,-1.73828 -1.13282,2e-5 -2.15495,0.25718 -3.0664,0.77149 -0.91147,0.51433 -1.62761,1.18165 -2.14844,2.00195 l -3.30078,-0.42969 2.77344,-14.70703 14.23828,0 0,3.35938 -11.42578,0 -1.54297,7.69531 c 1.71874,-1.1979 3.52212,-1.79686 5.41015,-1.79688 2.49999,2e-5 4.60936,0.86591 6.32813,2.59766 1.71873,1.73178 2.5781,3.95834 2.57812,6.67969 -2e-5,2.59115 -0.75522,4.83073 -2.26562,6.71875 -1.83596,2.31771 -4.34246,3.47656 -7.51953,3.47656 -2.60418,0 -4.72983,-0.72917 -6.37696,-2.1875 -1.64713,-1.45833 -2.58789,-3.39192 -2.82226,-5.80078 z"
         id="path4095" />
    </g>
  </g>
</svg>
