<?xml version="1.0" encoding="UTF-8" standalone="no"?>
<!-- Generator: Adobe Illustrator 13.0.2, SVG Export Plug-In . SVG Version: 6.00 Build 14948)  -->

<svg
   xmlns:dc="http://purl.org/dc/elements/1.1/"
   xmlns:cc="http://creativecommons.org/ns#"
   xmlns:rdf="http://www.w3.org/1999/02/22-rdf-syntax-ns#"
   xmlns:svg="http://www.w3.org/2000/svg"
   xmlns="http://www.w3.org/2000/svg"
   xmlns:sodipodi="http://sodipodi.sourceforge.net/DTD/sodipodi-0.dtd"
   xmlns:inkscape="http://www.inkscape.org/namespaces/inkscape"
   version="1.1"
   id="Layer_1"
   x="0px"
   y="0px"
   width="353.209px"
   height="182.186px"
   viewBox="0 0 353.209 182.186"
   enable-background="new 0 0 353.209 182.186"
   xml:space="preserve"
   inkscape:version="0.48.0 r9654"
   sodipodi:docname="johnny_automatic_open_book.svg"><metadata
   id="metadata8430"><rdf:RDF><cc:Work
       rdf:about=""><dc:format>image/svg+xml</dc:format><dc:type
         rdf:resource="http://purl.org/dc/dcmitype/StillImage" /></cc:Work></rdf:RDF></metadata><defs
   id="defs8428">
	
	
	
	

		
		
		
		
		
		
		
		
		
		
	</defs><sodipodi:namedview
   pagecolor="#ffffff"
   bordercolor="#666666"
   borderopacity="1"
   objecttolerance="10"
   gridtolerance="10"
   guidetolerance="10"
   inkscape:pageopacity="0"
   inkscape:pageshadow="2"
   inkscape:window-width="1600"
   inkscape:window-height="826"
   id="namedview8426"
   showgrid="false"
   inkscape:zoom="1.3561375"
   inkscape:cx="60.834538"
   inkscape:cy="120.58854"
   inkscape:window-x="0"
   inkscape:window-y="24"
   inkscape:window-maximized="1"
   inkscape:current-layer="Layer_1" />
<path
   inkscape:connector-curvature="0"
   id="path8398"
   d="m 330.084,70.199 c 3.078,-0.745 1.922,2.744 5,2 1.64,2.14 -2.549,4.854 -1,9.999 l -1.833,-0.5 -1.167,1.5 c -2.235,-0.432 -0.405,-4.929 -1,-7 l 0.444,-2.723 -2.444,-1.276 c 0,-0.333 0,-0.667 0,-1 l 1.5,0.5 0.5,-1.5 z"
   style="opacity:0.2" /><path
   inkscape:connector-curvature="0"
   id="path8400"
   d="m 332.917,83.698 1.167,-1.5 c 6.869,4.129 12.841,9.155 18.997,13.998 0.697,5.029 -1.696,6.97 -1,11.998 -30.646,2.781 -58.67,6.19 -87.988,9.999 -9.23,1.199 -19.859,1.675 -27.996,3.999 -12.092,3.456 -16.467,12.16 -30.996,13.999 -7.099,0.897 -12.355,-1.795 -19.998,-1 -9.243,0.961 -20.285,7.338 -29.997,10.998 -28.904,10.896 -59.091,22.764 -84.989,35.996 C 62.341,174.209 57.881,163.682 52.119,154.188 35.429,126.686 17.111,98.332 0.126,70.2 c -0.895,-3.229 3.261,-1.405 4,-3 l 1.5,0.5 1.5,-0.5 c 20.867,34.459 42.363,68.289 63.992,101.986 0.595,-2.07 -1.236,-6.567 1,-6.999 l 1.167,1.5 1.833,-0.5 c 1.327,4.385 -1.89,9.365 -1,9.999 36.686,-17.974 64.597,-44.724 119.984,-43.995 -0.848,-11.512 5.246,-16.084 8.998,-22.997 -1.582,-0.083 -3.812,0.481 -3.998,-1 l 0.5,-1.499 -0.5,-1.5 c 0.851,0.185 0.942,-0.39 1,-1 l 1.355,-1.214 -0.355,-1.786 c 3.864,0.136 3.942,4.057 6.998,5 l 1.215,1.356 1.785,-0.356 c -0.668,4.331 -4.627,5.371 -5,9.998 4.711,-0.289 7.08,-2.919 12.998,-1.999 3.942,1.058 3.812,6.188 6,8.998 19.527,-24.133 67.58,-19.74 109.986,-20.997 -1.188,-5.811 -4.154,-9.844 -4,-16.997 l 1.833,0.5 z"
   style="opacity:0.2" /><path
   inkscape:connector-curvature="0"
   id="path8402"
   d="m 5.958,65.7 -1.833,0.5 c 0.083,-1.583 -0.481,-3.814 1,-4 l 1.167,1.5 1.833,-0.5 c -0.083,1.583 0.481,3.812 -1,4 L 5.958,65.7 z"
   style="opacity:0.2" /><path
   d="m 350.251,81.698 c 0.222,0.667 0.444,1.333 0.666,2"
   id="path8406"
   inkscape:connector-curvature="0"
   style="opacity:0.2;fill:none;stroke:#000000;stroke-width:3.16190004;stroke-linecap:round" /><path
   d="m 5.625,67.7 c 0.04,-0.667 0.184,-1.333 0.333,-2"
   id="path8408"
   inkscape:connector-curvature="0"
   style="opacity:0.2;fill:none;stroke:#000000;stroke-width:3.08179998;stroke-linecap:round" /><path
   d="M 6.292,63.7 C 7.136,58.762 7.877,52.432 13.024,50.1"
   id="path8410"
   inkscape:connector-curvature="0"
   style="opacity:0.2;fill:none;stroke:#000000;stroke-width:3.33870006;stroke-linecap:round" /><path
   d="M 13.024,50.102 C 44.302,29.346 88.078,-3.624 124.468,26.99"
   id="path8412"
   inkscape:connector-curvature="0"
   style="fill:none;stroke:#000000;stroke-width:2.28069997000000013;stroke-linecap:round;opacity:0.2" /><path
   d="M 126.468,26.99 C 148.001,-8.966 195.063,8.878 229.442,1.248 263.251,25.011 298.536,47.15 331.585,71.7"
   id="path8414"
   inkscape:connector-curvature="0"
   style="opacity:0.2;fill:none;stroke:#000000;stroke-width:2.32800007;stroke-linecap:round" /><path
   d="M 209.313,104.552 C 236.875,66.877 290.227,80.438 330.529,73.477"
   id="path8416"
   inkscape:connector-curvature="0"
   style="opacity:0.2;fill:none;stroke:#000000;stroke-width:3.98990011;stroke-linecap:round" /><path
   d="m 124.468,26.99 c 26.053,23.891 50.821,49.292 76.99,72.99"
   id="path8418"
   inkscape:connector-curvature="0"
   style="fill:none;stroke:#000000;stroke-width:3.03819989999999995;stroke-linecap:round;opacity:0.2" /><path
   d="m 13.024,50.102 c 22.017,30.93 40.332,64.812 62.092,96.088"
   id="path8420"
   inkscape:connector-curvature="0"
   style="fill:none;stroke:#000000;stroke-width:2.61560010999999992;stroke-linecap:round;opacity:0.2" /><path
   d="M 75.117,146.189 C 114.904,128.064 153.037,97.512 199.6,103.695"
   id="path8422"
   inkscape:connector-curvature="0"
   style="fill:none;stroke:#000000;stroke-width:2.98049997999999983;stroke-linecap:round;opacity:0.2" /><path
   d="m 75.117,146.189 c -0.556,5.836 -0.93,11.693 -1.833,17.498"
   id="path8424"
   inkscape:connector-curvature="0"
   style="fill:none;stroke:#000000;stroke-width:3.72819995999999998;stroke-linecap:round;opacity:0.2" />
</svg>