<?xml version="1.0" encoding="UTF-8" standalone="no"?>
<!-- Created with Inkscape (http://www.inkscape.org/) -->
<svg
   xmlns:dc="http://purl.org/dc/elements/1.1/"
   xmlns:cc="http://web.resource.org/cc/"
   xmlns:rdf="http://www.w3.org/1999/02/22-rdf-syntax-ns#"
   xmlns:svg="http://www.w3.org/2000/svg"
   xmlns="http://www.w3.org/2000/svg"
   xmlns:xlink="http://www.w3.org/1999/xlink"
   xmlns:sodipodi="http://sodipodi.sourceforge.net/DTD/sodipodi-0.dtd"
   xmlns:inkscape="http://www.inkscape.org/namespaces/inkscape"
   width="699.99994"
   height="954.28577"
   id="svg7719"
   sodipodi:version="0.32"
   inkscape:version="0.45pre1"
   version="1.0"
   sodipodi:docbase="C:\temp\clipart"
   sodipodi:docname="lock.svg"
   inkscape:output_extension="org.inkscape.output.svg.inkscape"
   inkscape:export-filename="C:\temp\clipart\lock.png"
   inkscape:export-xdpi="90"
   inkscape:export-ydpi="90"
   sodipodi:modified="TRUE">
  <defs
     id="defs7721">
    <filter
       inkscape:collect="always"
       id="filter4031"
       x="-0.14653437"
       width="1.2930686"
       y="-0.20868881"
       height="1.4173776">
      <feGaussianBlur
         inkscape:collect="always"
         stdDeviation="14.744081"
         id="feGaussianBlur4033" />
    </filter>
    <filter
       inkscape:collect="always"
       id="filter3886"
       x="-0.07830108"
       width="1.1566021"
       y="-0.13505806"
       height="1.2701161">
      <feGaussianBlur
         inkscape:collect="always"
         stdDeviation="21.009773"
         id="feGaussianBlur3888" />
    </filter>
    <linearGradient
       id="linearGradient3549">
      <stop
         id="stop3551"
         offset="0"
         style="stop-color:#000000;stop-opacity:1" />
      <stop
         style="stop-color:#b4b4b4;stop-opacity:0.49803922;"
         offset="1"
         id="stop3553" />
    </linearGradient>
    <linearGradient
       inkscape:collect="always"
       xlink:href="#linearGradient3549"
       id="linearGradient4165"
       gradientUnits="userSpaceOnUse"
       gradientTransform="translate(-688.35192,-238.84701)"
       x1="889.9375"
       y1="765.71875"
       x2="337.1875"
       y2="-332.09375" />
    <filter
       inkscape:collect="always"
       id="filter3510"
       x="-0.33405945"
       width="1.668119"
       y="-0.15102059"
       height="1.3020412">
      <feGaussianBlur
         inkscape:collect="always"
         stdDeviation="78.36631"
         id="feGaussianBlur3512" />
    </filter>
    <filter
       inkscape:collect="always"
       id="filter3539"
       x="-0.077247761"
       width="1.1544955"
       y="-0.40710804"
       height="1.8142161">
      <feGaussianBlur
         inkscape:collect="always"
         stdDeviation="16.960952"
         id="feGaussianBlur3541" />
    </filter>
    <filter
       inkscape:collect="always"
       id="filter3522"
       x="-0.16717336"
       width="1.3343467"
       y="-0.075844616"
       height="1.1516892">
      <feGaussianBlur
         inkscape:collect="always"
         stdDeviation="39.301936"
         id="feGaussianBlur3524" />
    </filter>
    <linearGradient
       inkscape:collect="always"
       xlink:href="#linearGradient3526"
       id="linearGradient4163"
       gradientUnits="userSpaceOnUse"
       gradientTransform="translate(-688.35192,-278.8342)"
       x1="80"
       y1="92.375"
       x2="560"
       y2="1132.375" />
    <linearGradient
       inkscape:collect="always"
       xlink:href="#linearGradient3526"
       id="linearGradient4161"
       gradientUnits="userSpaceOnUse"
       gradientTransform="translate(-688.35192,-285.95919)"
       x1="-20.936207"
       y1="508.62869"
       x2="733.01044"
       y2="508.62869" />
    <filter
       inkscape:collect="always"
       id="filter4115"
       x="-0.11185166"
       width="1.2237033"
       y="-0.089007363"
       height="1.1780148">
      <feGaussianBlur
         inkscape:collect="always"
         stdDeviation="35.137149"
         id="feGaussianBlur4117" />
    </filter>
    <linearGradient
       id="linearGradient3526">
      <stop
         style="stop-color:#000000;stop-opacity:1;"
         offset="0"
         id="stop3528" />
      <stop
         id="stop3534"
         offset="1"
         style="stop-color:#b4b4b4;stop-opacity:0.49803922;" />
    </linearGradient>
    <linearGradient
       inkscape:collect="always"
       xlink:href="#linearGradient3526"
       id="linearGradient4159"
       gradientUnits="userSpaceOnUse"
       gradientTransform="translate(-678.28942,-301.45919)"
       x1="80"
       y1="92.375"
       x2="560"
       y2="1132.375" />
    <linearGradient
       inkscape:collect="always"
       xlink:href="#linearGradient3526"
       id="linearGradient8739"
       gradientUnits="userSpaceOnUse"
       gradientTransform="matrix(0.7793568,0,0,0.8527345,114.31778,320.99323)"
       x1="80"
       y1="92.375"
       x2="560"
       y2="1132.375" />
    <linearGradient
       inkscape:collect="always"
       xlink:href="#linearGradient3526"
       id="linearGradient8742"
       gradientUnits="userSpaceOnUse"
       gradientTransform="matrix(0.7793568,0,0,0.8527345,114.31778,314.9175)"
       x1="-20.936207"
       y1="508.62869"
       x2="733.01044"
       y2="508.62869" />
    <linearGradient
       inkscape:collect="always"
       xlink:href="#linearGradient3526"
       id="linearGradient8745"
       gradientUnits="userSpaceOnUse"
       gradientTransform="translate(-678.28942,-301.45919)"
       x1="80"
       y1="92.375"
       x2="560"
       y2="1132.375" />
    <linearGradient
       inkscape:collect="always"
       xlink:href="#linearGradient3549"
       id="linearGradient8747"
       gradientUnits="userSpaceOnUse"
       gradientTransform="translate(-688.35192,-238.84701)"
       x1="889.9375"
       y1="765.71875"
       x2="337.1875"
       y2="-332.09375" />
  </defs>
  <sodipodi:namedview
     id="base"
     pagecolor="#ffffff"
     bordercolor="#666666"
     borderopacity="1.0"
     gridtolerance="10000"
     guidetolerance="10"
     objecttolerance="10"
     inkscape:pageopacity="0.0"
     inkscape:pageshadow="2"
     inkscape:zoom="0.35"
     inkscape:cx="375"
     inkscape:cy="520"
     inkscape:document-units="px"
     inkscape:current-layer="layer1"
     inkscape:window-width="1280"
     inkscape:window-height="750"
     inkscape:window-x="-8"
     inkscape:window-y="-8" />
  <metadata
     id="metadata7724">
    <rdf:RDF>
      <cc:Work
         rdf:about="">
        <dc:format>image/svg+xml</dc:format>
        <dc:type
           rdf:resource="http://purl.org/dc/dcmitype/StillImage" />
      </cc:Work>
    </rdf:RDF>
  </metadata>
  <g
     inkscape:label="Layer 1"
     inkscape:groupmode="layer"
     id="layer1"
     transform="translate(-25.714298,-78.076462)">
    <rect
       style="opacity:0.75903614;fill:none;fill-opacity:1;stroke:none"
       id="rect7760"
       width="699.99994"
       height="954.28577"
       x="25.714298"
       y="78.076462" />
    <path
       id="path4119"
       d="M -338.28942,-469.0842 C -515.13022,-468.34098 -658.02402,-317.69774 -657.22692,-132.80295 L -656.78942,-132.80295 L -661.32067,-77.459198 L -661.32067,-30.834198 C -661.84296,-30.659808 -662.40362,-30.478278 -662.91442,-30.302948 L -662.91442,-31.584198 C -663.79552,-31.634028 -664.70316,-31.709198 -665.60192,-31.709198 C -684.16405,-31.709188 -699.22692,-20.880028 -699.22692,-7.5529483 C -699.22692,-5.6220483 -698.88677,-3.7594283 -698.28942,-1.9591983 L -698.28942,450.9158 C -698.49913,452.00502 -698.63317,453.12912 -698.63317,454.25955 C -698.63317,461.14651 -694.58529,467.30376 -688.13317,471.69705 L -688.13317,473.5408 L -685.19567,473.5408 C -679.57127,476.57115 -672.54799,478.35329 -664.97692,478.3533 C -664.28284,478.35328 -663.59801,478.32055 -662.91442,478.2908 L -662.91442,473.5408 L 51.648075,473.5408 L 51.648075,-0.49044828 C 53.674425,-2.8619483 54.710575,-5.2239383 54.710575,-7.6779483 C 54.710595,-10.131968 53.674405,-12.587678 51.648075,-14.959198 L 51.648075,-15.740448 L 50.898075,-15.740448 C 42.158405,-24.923858 18.641815,-33.388818 -15.851925,-40.584198 L -15.851925,-137.92795 L -16.508175,-137.92795 C -18.556885,-321.69526 -162.22752,-469.82415 -338.28942,-469.0842 z M -341.10192,-393.55294 C -204.13692,-394.12857 -92.469025,-278.38078 -91.851925,-135.17795 L -91.133175,-135.17795 L -88.914425,-80.771698 L -88.914425,-52.052948 C -152.54018,-59.558308 -232.67082,-64.021698 -319.75817,-64.021698 C -425.03546,-64.021698 -520.2053,-57.482728 -588.25817,-46.959198 L -588.25817,-133.0842 L -588.13317,-133.0842 C -588.75057,-276.287 -478.06672,-392.97731 -341.10192,-393.55294 z "
       style="opacity:0.86725619;fill:url(#linearGradient8745);fill-opacity:1;stroke:none;stroke-width:0.625;stroke-linejoin:round;stroke-miterlimit:10.30000019;stroke-dasharray:none;stroke-opacity:0.918129;filter:url(#filter4115)"
       transform="matrix(0.7793568,0,0,0.8527345,650.78953,558.76477)" />
    <path
       style="fill:url(#linearGradient8742);fill-opacity:1;stroke:none;stroke-width:0.625;stroke-linejoin:round;stroke-miterlimit:10.30000019;stroke-dasharray:none;stroke-opacity:0.918129"
       d="M 379.29909,171.97787 C 241.47701,172.61164 130.11176,301.07033 130.73298,458.7365 L 131.07395,458.7365 L 127.54249,505.93002 L 127.54249,545.68877 C 127.13545,545.83748 126.69849,545.99228 126.30039,546.14179 L 126.30039,545.04922 C 125.6137,545.00673 124.90632,544.94263 124.20587,544.94263 C 109.73936,544.94264 97.999997,554.17703 97.999997,565.5415 C 98.000005,567.18804 98.265096,568.77636 98.730644,570.31148 L 98.730644,956.49365 C 98.567205,957.42245 98.46274,958.38101 98.46274,959.34494 C 98.46274,965.21772 101.61749,970.46818 106.64599,974.21449 L 106.64599,975.78677 L 108.93535,975.78677 C 113.31877,978.37081 118.7924,979.89047 124.69297,979.89055 C 125.2339,979.89047 125.76763,979.86258 126.30039,979.83726 L 126.30039,975.78677 L 683.19952,975.78677 L 683.19952,571.56393 C 684.7788,569.54167 685.5863,567.52752 685.5863,565.4349 C 685.5863,563.34228 684.7788,561.24821 683.19952,559.22593 L 683.19952,558.55973 L 682.615,558.55973 C 675.80373,550.72872 657.47591,543.51036 630.59293,537.37461 L 630.59293,454.36623 L 630.08152,454.36623 C 628.48485,297.66152 516.51413,171.34689 379.29909,171.97787 z M 377.10715,236.38599 C 483.85176,235.89513 570.88088,334.59726 571.36182,456.71125 L 571.92202,456.71125 L 573.65117,503.10534 L 573.65117,527.59481 C 524.06403,521.19473 461.61367,517.38864 393.74155,517.38864 C 311.69298,517.38864 237.52171,522.96465 184.48425,531.93843 L 184.48425,458.49667 L 184.58167,458.49667 C 184.10049,336.38271 270.3627,236.87684 377.10715,236.38599 z "
       id="path4121" />
    <path
       style="fill:url(#linearGradient8739);fill-opacity:1;stroke:none;stroke-width:0.625;stroke-linejoin:round;stroke-miterlimit:10.30000019;stroke-dasharray:none;stroke-opacity:0.918129"
       d="M 379.29909,178.05361 C 241.47701,178.68738 130.11176,307.14606 130.73298,464.81223 L 131.07395,464.81223 L 127.54249,512.00576 L 127.54249,551.7645 C 127.13544,551.91321 126.69848,552.06801 126.30039,552.21752 L 126.30039,551.12495 C 125.61369,551.08246 124.90632,551.01836 124.20587,551.01836 C 109.73935,551.01837 97.999997,560.25277 97.999997,571.61723 C 97.999997,573.26377 98.265088,574.85209 98.730644,576.38721 L 98.730644,962.56935 C 98.567205,963.49816 98.46274,964.45672 98.46274,965.42068 C 98.462733,971.29343 101.61748,976.54393 106.64599,980.29024 L 106.64599,981.86247 L 108.93535,981.86247 C 113.31876,984.44655 118.7924,985.96624 124.69297,985.96625 C 125.2339,985.96623 125.76762,985.93832 126.30039,985.91295 L 126.30039,981.86247 L 683.19953,981.86247 L 683.19953,577.63967 C 684.77878,575.61741 685.58631,573.60326 685.58631,571.51064 C 685.58633,569.41801 684.77876,567.32394 683.19953,565.30166 L 683.19953,564.63546 L 682.61501,564.63546 C 675.80369,556.80445 657.47588,549.58609 630.59295,543.45034 L 630.59295,460.44197 L 630.08149,460.44197 C 628.48482,303.73724 516.51413,177.42263 379.29909,178.05361 z M 377.10715,242.46171 C 483.85176,241.97086 570.88089,340.67298 571.36183,462.78699 L 571.922,462.78699 L 573.65119,509.18107 L 573.65119,533.67054 C 524.06403,527.27046 461.61367,523.46438 393.74155,523.46438 C 311.69298,523.46438 237.52171,529.04038 184.48425,538.01416 L 184.48425,464.5724 L 184.58167,464.5724 C 184.10048,342.45843 270.3627,242.95257 377.10715,242.46171 z "
       id="path4123" />
    <path
       style="opacity:0.67699118;fill:#2e2900;fill-opacity:1;stroke:#000000;stroke-width:0.97614878;stroke-linejoin:round;stroke-miterlimit:10.30000019;stroke-dasharray:none;stroke-opacity:1"
       d="M 390.66945,666.12814 C 354.56564,666.12814 325.2598,684.31637 325.2598,706.72418 C 325.2598,721.60764 338.19284,734.62207 357.45394,741.68851 C 325.60163,769.72353 305.69818,829.40744 306.61946,843.6203 C 307.8291,862.28146 349.80221,876.71246 400.31134,875.83491 C 450.82039,874.95727 490.83109,859.09812 489.62143,840.43687 C 488.70419,826.28694 461.28546,767.88537 426.0605,740.85838 C 444.11549,733.63051 456.07906,721.04117 456.07906,706.72418 C 456.07906,684.31637 426.77325,666.12814 390.66945,666.12814 z "
       id="path4125" />
    <path
       style="opacity:0.2035398;fill:#ffffff;fill-opacity:1;stroke:#000000;stroke-width:4.15073061;stroke-linejoin:round;stroke-miterlimit:10.30000019;stroke-dasharray:none;stroke-opacity:1;filter:url(#filter3522)"
       d="M -1120,252.36218 C -1230.4619,252.36218 -1320.1251,359.84729 -1320.125,492.26843 C -1320.125,580.22348 -1280.5555,657.13356 -1221.625,698.89343 C -1319.0793,864.56891 -1379.9751,1217.2763 -1377.1563,1301.2684 C -1373.4554,1411.5483 -1245.0358,1496.8296 -1090.5,1491.6434 C -935.96432,1486.4571 -813.54902,1392.7359 -817.25006,1282.4559 C -820.0564,1198.8352 -903.94575,853.7058 -1011.7188,693.98718 C -956.4784,651.27378 -919.87508,576.87587 -919.87506,492.26843 C -919.87506,359.84729 -1009.5381,252.36218 -1120,252.36218 z "
       id="path4127"
       transform="matrix(0.2827535,0,0,0.1540711,712.12756,633.93499)" />
    <path
       transform="matrix(0.9738233,0,0,0.852924,663.65251,380.66292)"
       style="opacity:0.51769912;fill:#ffffff;fill-opacity:1;stroke:none;stroke-width:2.625;stroke-linejoin:round;stroke-miterlimit:10.30000019;stroke-opacity:1;filter:url(#filter3539)"
       d="M -11.996942,222.36218 C -11.996942,249.96218 -145.54716,272.35108 -300.10716,272.35108 C -384.76238,241.51593 -438.87408,212.86841 -499.94102,232.95847 C -586.47215,261.42586 -532.99045,191.27118 -300,172.36218 C -145.44,172.36218 -11.996942,194.76218 -11.996942,222.36218 z "
       id="path4129"
       sodipodi:nodetypes="ccscc" />
    <path
       style="opacity:0.67699118;fill:#2e2900;fill-opacity:1;stroke:#000000;stroke-width:0.97614878;stroke-linejoin:round;stroke-miterlimit:10.30000019;stroke-dasharray:none;stroke-opacity:1"
       d="M 390.11207,665.95104 C 354.00826,665.95104 324.70242,684.13927 324.70242,706.54709 C 324.70242,721.43054 337.63546,734.44498 356.89656,741.51142 C 325.04425,769.54643 305.1408,829.23036 306.06208,843.44322 C 307.27172,862.10438 349.24483,876.53538 399.75396,875.65783 C 450.26301,874.78019 490.27371,858.92104 489.06405,840.2598 C 488.14681,826.10986 460.72808,767.70828 425.50312,740.68128 C 443.5581,733.45342 455.52168,720.86407 455.52168,706.54709 C 455.52168,684.13927 426.21587,665.95104 390.11207,665.95104 z "
       id="path4131" />
    <path
       style="opacity:0.24336285;fill:#ffffff;fill-opacity:1;stroke:#000000;stroke-width:4.15073061;stroke-linejoin:round;stroke-miterlimit:10.30000019;stroke-dasharray:none;stroke-opacity:1;filter:url(#filter3510)"
       d="M -1120,252.36218 C -1230.4619,252.36218 -1320.1251,359.84729 -1320.125,492.26843 C -1320.125,580.22348 -1280.5555,657.13356 -1221.625,698.89343 C -1319.0793,864.56891 -1379.9751,1217.2763 -1377.1563,1301.2684 C -1373.4554,1411.5483 -1245.0358,1496.8296 -1090.5,1491.6434 C -935.96432,1486.4571 -813.54902,1392.7359 -817.25006,1282.4559 C -820.0564,1198.8352 -903.94575,853.7058 -1011.7188,693.98718 C -956.4784,651.27378 -919.87508,576.87587 -919.87506,492.26843 C -919.87506,359.84729 -1009.5381,252.36218 -1120,252.36218 z "
       id="path4133"
       transform="matrix(0.2827535,0,0,0.1540711,711.57018,633.75789)" />
    <path
       style="opacity:0.72123892;fill:url(#linearGradient8747);fill-opacity:1;stroke:none;stroke-width:0.625;stroke-linejoin:round;stroke-miterlimit:10.30000019;stroke-dasharray:none;stroke-opacity:0.918129;filter:url(#filter3886)"
       d="M -348.35192,-406.4592 C -525.19272,-405.71598 -668.08652,-255.07274 -667.28942,-70.177948 L -666.85192,-70.177948 L -669.88322,-33.115448 L -598.32062,-33.115448 L -598.32062,-70.459198 L -598.19562,-70.459198 C -598.81312,-213.66199 -488.12922,-330.35231 -351.16442,-330.92794 C -214.19942,-331.50357 -102.53152,-215.75578 -101.91442,-72.552948 L -101.19562,-72.552948 L -99.601925,-33.115448 L -25.914425,-33.115448 L -25.914425,-75.302948 L -26.570625,-75.302948 C -28.619425,-259.07025 -172.29002,-407.19915 -348.35192,-406.4592 z "
       id="path4135"
       transform="matrix(0.7793568,0,0,0.8527345,650.78953,558.76477)" />
    <path
       style="opacity:0.73893804;fill:#f2f2f2;fill-opacity:1;stroke:none;stroke-width:2.625;stroke-linejoin:round;stroke-miterlimit:10.30000019;stroke-opacity:1;filter:url(#filter4031)"
       d="M 629.52089,566.63038 L 626.54683,638.68005 L 575.06487,675.41706 C 536.14243,706.36352 527.72085,716.36602 480,752.36218 C 558.51073,771.6945 789.39952,590.71366 700,592.36218 L 629.52089,566.63038 z "
       id="path4137"
       sodipodi:nodetypes="cccccc"
       transform="matrix(0.6037213,0.4248816,-0.8293132,0.3093043,712.92923,481.93206)" />
  </g>
</svg>
