<?xml version="1.0" encoding="UTF-8" standalone="no"?>
<!-- Created with Inkscape (http://www.inkscape.org/) -->
<svg
   xmlns:dc="http://purl.org/dc/elements/1.1/"
   xmlns:cc="http://web.resource.org/cc/"
   xmlns:rdf="http://www.w3.org/1999/02/22-rdf-syntax-ns#"
   xmlns:svg="http://www.w3.org/2000/svg"
   xmlns="http://www.w3.org/2000/svg"
   xmlns:sodipodi="http://sodipodi.sourceforge.net/DTD/sodipodi-0.dtd"
   xmlns:inkscape="http://www.inkscape.org/namespaces/inkscape"
   id="svg1923"
   sodipodi:version="0.32"
   inkscape:version="0.44.1"
   width="145.27559"
   height="145.27559"
   version="1.0"
   sodipodi:docbase="/home/tim"
   sodipodi:docname="Zielscheibe.svg">
  <metadata
     id="metadata1928">
    <rdf:RDF>
      <cc:Work
         rdf:about="">
        <dc:format>image/svg+xml</dc:format>
        <dc:type
           rdf:resource="http://purl.org/dc/dcmitype/StillImage" />
      </cc:Work>
    </rdf:RDF>
  </metadata>
  <defs
     id="defs1926" />
  <sodipodi:namedview
     inkscape:window-height="960"
     inkscape:window-width="1280"
     inkscape:pageshadow="2"
     inkscape:pageopacity="0.0"
     guidetolerance="10.0"
     gridtolerance="10.0"
     objecttolerance="10.0"
     borderopacity="1.0"
     bordercolor="#666666"
     pagecolor="#ffffff"
     id="base"
     showguides="true"
     showgrid="true"
     inkscape:zoom="5"
     inkscape:cx="73.418673"
     inkscape:cy="72.928648"
     inkscape:window-x="0"
     inkscape:window-y="0"
     inkscape:current-layer="svg1923"
     gridspacingx="0.05mm"
     gridspacingy="0.05mm"
     inkscape:document-units="mm"
     width="41mm"
     height="41mm"
     units="mm"
     grid_units="mm" />
  <path
     sodipodi:type="arc"
     style="stroke:none"
     id="path2835"
     sodipodi:cx="139.77011"
     sodipodi:cy="46.197701"
     sodipodi:rx="5.5908046"
     sodipodi:ry="22.363218"
     d="M 145.36092 46.197701 A 5.5908046 22.363218 0 1 1  134.17931,46.197701 A 5.5908046 22.363218 0 1 1  145.36092 46.197701 z"
     transform="matrix(12.99237,0,0,3.248092,-1743.307,-77.41658)" />
  <path
     sodipodi:type="arc"
     style="fill:white;stroke:none"
     id="path2833"
     sodipodi:cx="109.31494"
     sodipodi:cy="25.011494"
     sodipodi:rx="36.045979"
     sodipodi:ry="14.124138"
     d="M 145.36092 25.011494 A 36.045979 14.124138 0 1 1  73.268963,25.011494 A 36.045979 14.124138 0 1 1  145.36092 25.011494 z"
     transform="matrix(-1.646519,0,0,-4.202054,252.6269,177.7374)" />
  <path
     sodipodi:type="arc"
     style="stroke:none"
     id="path2827"
     sodipodi:cx="139.77011"
     sodipodi:cy="46.197701"
     sodipodi:rx="5.5908046"
     sodipodi:ry="22.363218"
     d="M 145.36092 46.197701 A 5.5908046 22.363218 0 1 1  134.17931,46.197701 A 5.5908046 22.363218 0 1 1  145.36092 46.197701 z"
     transform="matrix(8.710867,0,0,2.19401,-1144.901,-29.06508)" />
  <path
     sodipodi:type="arc"
     style="fill:white;stroke:none"
     id="path2831"
     sodipodi:cx="109.31494"
     sodipodi:cy="25.011494"
     sodipodi:rx="36.045979"
     sodipodi:ry="14.124138"
     d="M 145.36092 25.011494 A 36.045979 14.124138 0 1 1  73.268963,25.011494 A 36.045979 14.124138 0 1 1  145.36092 25.011494 z"
     transform="matrix(0.982997,0,0,2.508682,-34.81845,9.89201)" />
  <path
     sodipodi:type="arc"
     style="stroke:none"
     id="path2825"
     sodipodi:cx="127.70575"
     sodipodi:cy="65.618393"
     sodipodi:rx="10.298851"
     sodipodi:ry="10.593103"
     d="M 138.0046 65.618393 A 10.298851 10.593103 0 1 1  117.4069,65.618393 A 10.298851 10.593103 0 1 1  138.0046 65.618393 z"
     transform="matrix(2.666382,0,0,2.592316,-267.8745,-97.46586)" />
  <rect
     style="fill:black;fill-opacity:1;stroke:none;stroke-width:0.70866144;stroke-miterlimit:4;stroke-dasharray:none"
     id="rect6423"
     width="131.98819"
     height="5.3149605"
     x="8.4153547"
     y="69.980316" />
  <rect
     style="fill:black;fill-opacity:1;stroke:none;stroke-width:0.70866144;stroke-miterlimit:4;stroke-dasharray:none"
     id="rect7310"
     width="131.98819"
     height="5.3149605"
     x="-136.86023"
     y="69.980316"
     transform="matrix(0,-1,1,0,0,0)" />
  <path
     sodipodi:type="arc"
     style="fill:white;stroke:none"
     id="path2829"
     sodipodi:cx="69.73793"
     sodipodi:cy="36.340229"
     sodipodi:rx="20.891954"
     sodipodi:ry="22.510345"
     d="M 90.629885 36.340229 A 20.891954 22.510345 0 1 1  48.845976,36.340229 A 20.891954 22.510345 0 1 1  90.629885 36.340229 z"
     transform="matrix(0.678406,0,0,0.629632,25.32716,49.75682)" />
  <path
     sodipodi:type="arc"
     style="fill:red;fill-rule:evenodd;stroke:none;stroke-width:1px;stroke-linecap:butt;stroke-linejoin:miter;stroke-opacity:1"
     id="path1934"
     sodipodi:cx="-43.696552"
     sodipodi:cy="37.958622"
     sodipodi:rx="9.2689657"
     sodipodi:ry="9.4160919"
     d="M -34.427587 37.958622 A 9.2689657 9.4160919 0 1 1  -52.965518,37.958622 A 9.2689657 9.4160919 0 1 1  -34.427587 37.958622 z"
     transform="matrix(1.242398,0,0,1.222985,126.9263,26.21498)" />
</svg>
