<?xml version="1.0" encoding="utf-8"?>
<!-- Generator: Adobe Illustrator 12.0.1, SVG Export Plug-In . SVG Version: 6.00 Build 51448)  -->
<!DOCTYPE svg PUBLIC "-//W3C//DTD SVG 1.1//EN" "http://www.w3.org/Graphics/SVG/1.1/DTD/svg11.dtd" [
	<!ENTITY ns_svg "http://www.w3.org/2000/svg">
	<!ENTITY ns_xlink "http://www.w3.org/1999/xlink">
]>
<svg  version="1.1" id="Layer_1" xmlns="&ns_svg;" xmlns:xlink="&ns_xlink;" width="302.185" height="271.462"
	 viewBox="0 0 302.185 271.462" overflow="visible" enable-background="new 0 0 302.185 271.462" xml:space="preserve">
<g>
	<g>
		<rect x="1.451" y="118.059" fill="#FFFFFF" stroke="#000000" width="212.902" height="152.903"/>
		<path fill="#FFFFFF" stroke="#000000" d="M214.353,118.059c0,0-83.312-62.804-87.951-65.782
			c-4.695-3.014-20.822-11.638-38.242-0.025C70.741,63.865,1.451,118.059,1.451,118.059H214.353z"/>
		<polyline fill="none" stroke="#000000" points="2.093,118.949 107.88,189.3 107.88,199.477 1.451,270.962 		"/>
		<polyline fill="none" stroke="#000000" points="213.601,118.949 107.813,189.3 107.813,199.477 214.242,270.962 		"/>
	</g>
	
		<rect x="75.118" y="21.058" transform="matrix(0.9781 0.2079 -0.2079 0.9781 24.2459 -35.6252)" fill="#FFFFFF" stroke="#000000" width="212.904" height="152.904"/>
	<g>
		<path d="M284.986,86.549c-1.051,0.215-1.037-2.184-2.086-2.41c-1.047-0.226-1.471,1.729-2.518,1.503
			c-1.049-0.227-0.627-2.182-1.676-2.408c-1.047-0.226-1.469,1.729-2.518,1.502c-1.049-0.227-0.627-2.182-1.676-2.408
			c-1.047-0.226-1.225,1.782-2.518,1.502c-0.604-0.13-0.891-2.238-1.674-2.408c-0.654-0.141-1.781,1.662-2.52,1.502
			c-0.676-0.146-0.959-2.253-1.676-2.408c-0.691-0.149-1.818,1.653-2.521,1.501c-0.705-0.152-0.988-2.26-1.68-2.409
			c-0.721-0.155-1.848,1.647-2.525,1.501c-0.74-0.16-1.025-2.268-1.682-2.409c-0.785-0.169-1.916,1.632-2.52,1.501
			c-1.293-0.279-0.783-0.465-0.891-1.532c-0.129-1.256-1.707-1.343-1.439-2.578c0.266-1.233,2.221-0.811,2.486-2.044
			c0.268-1.234-1.688-1.657-1.422-2.891c0.268-1.234,2.223-0.812,2.488-2.046c0.268-1.235-1.688-1.657-1.422-2.892
			c0.268-1.234,2.223-0.812,2.488-2.046c0.268-1.235-1.688-1.657-1.42-2.892c0.266-1.236,2.221-0.813,2.488-2.049
			c0.266-1.232-1.689-1.655-1.424-2.888c0.268-1.234,2.223-0.812,2.49-2.047c0.266-1.235-1.689-1.658-1.422-2.894
			c0.266-1.236,2.221-0.814,2.488-2.05s-1.688-1.658-1.42-2.895c0.268-1.238,2.221-0.816,2.488-2.055s-2.057-2.708-1.051-3.48
			c0.85-0.653,1.445,1.997,2.494,2.224c1.047,0.226,1.471-1.729,2.518-1.503c1.049,0.227,0.627,2.182,1.676,2.408
			c1.047,0.226,1.213-1.784,2.518-1.502c0.6,0.129,0.885,2.237,1.674,2.408c0.648,0.14,1.775-1.663,2.52-1.502
			c0.67,0.145,0.951,2.252,1.676,2.408c0.684,0.147,1.807-1.656,2.518-1.502c0.693,0.15,0.975,2.257,1.678,2.409
			s1.828-1.651,2.523-1.501c0.713,0.154,0.994,2.261,1.68,2.409c0.725,0.157,1.852-1.646,2.523-1.501
			c0.746,0.161,1.029,2.269,1.68,2.409c0.789,0.17,1.92-1.632,2.52-1.502c1.305,0.282,0.785,0.461,0.891,1.528
			c0.123,1.257,1.705,1.348,1.439,2.583c-0.268,1.233-2.154,0.5-2.488,2.044c-0.152,0.703,1.623,1.958,1.422,2.891
			c-0.164,0.76-2.297,1.165-2.486,2.042c-0.17,0.785,1.605,2.034,1.422,2.89c-0.174,0.8-2.307,1.205-2.488,2.048
			c-0.176,0.81,1.602,2.058,1.422,2.891c-0.178,0.818-2.311,1.222-2.49,2.048c-0.178,0.827,1.598,2.077,1.422,2.897
			c-0.182,0.835-2.314,1.241-2.49,2.053c-0.182,0.844,1.594,2.093,1.422,2.894c-0.186,0.859-2.32,1.267-2.49,2.055
			c-0.189,0.881,1.586,2.133,1.422,2.896c-0.203,0.933-2.338,1.343-2.488,2.046C284.007,84.435,286.222,86.296,284.986,86.549z"/>
		<path fill="none" stroke="#000000" stroke-width="0.8452" d="M284.986,86.549c-1.051,0.215-1.037-2.184-2.086-2.41
			c-1.047-0.226-1.471,1.729-2.518,1.503c-1.049-0.227-0.627-2.182-1.676-2.408c-1.047-0.226-1.469,1.729-2.518,1.502
			c-1.049-0.227-0.627-2.182-1.676-2.408c-1.047-0.226-1.225,1.782-2.518,1.502c-0.604-0.13-0.891-2.238-1.674-2.408
			c-0.654-0.141-1.781,1.662-2.52,1.502c-0.676-0.146-0.959-2.253-1.676-2.408c-0.691-0.149-1.818,1.653-2.521,1.501
			c-0.705-0.152-0.988-2.26-1.68-2.409c-0.721-0.155-1.848,1.647-2.525,1.501c-0.74-0.16-1.025-2.268-1.682-2.409
			c-0.785-0.169-1.916,1.632-2.52,1.501c-1.293-0.279-0.783-0.465-0.891-1.532c-0.129-1.256-1.707-1.343-1.439-2.578
			c0.266-1.233,2.221-0.811,2.486-2.044c0.268-1.234-1.688-1.657-1.422-2.891c0.268-1.234,2.223-0.812,2.488-2.046
			c0.268-1.235-1.688-1.657-1.422-2.892c0.268-1.234,2.223-0.812,2.488-2.046c0.268-1.235-1.688-1.657-1.42-2.892
			c0.266-1.236,2.221-0.813,2.488-2.049c0.266-1.232-1.689-1.655-1.424-2.888c0.268-1.234,2.223-0.812,2.49-2.047
			c0.266-1.235-1.689-1.658-1.422-2.894c0.266-1.236,2.221-0.814,2.488-2.05s-1.688-1.658-1.42-2.895
			c0.268-1.238,2.221-0.816,2.488-2.055s-2.057-2.708-1.051-3.48c0.85-0.653,1.445,1.997,2.494,2.224
			c1.047,0.226,1.471-1.729,2.518-1.503c1.049,0.227,0.627,2.182,1.676,2.408c1.047,0.226,1.213-1.784,2.518-1.502
			c0.6,0.129,0.885,2.237,1.674,2.408c0.648,0.14,1.775-1.663,2.52-1.502c0.67,0.145,0.951,2.252,1.676,2.408
			c0.684,0.147,1.807-1.656,2.518-1.502c0.693,0.15,0.975,2.257,1.678,2.409s1.828-1.651,2.523-1.501
			c0.713,0.154,0.994,2.261,1.68,2.409c0.725,0.157,1.852-1.646,2.523-1.501c0.746,0.161,1.029,2.269,1.68,2.409
			c0.789,0.17,1.92-1.632,2.52-1.502c1.305,0.282,0.785,0.461,0.891,1.528c0.123,1.257,1.705,1.348,1.439,2.583
			c-0.268,1.233-2.154,0.5-2.488,2.044c-0.152,0.703,1.623,1.958,1.422,2.891c-0.164,0.76-2.297,1.165-2.486,2.042
			c-0.17,0.785,1.605,2.034,1.422,2.89c-0.174,0.8-2.307,1.205-2.488,2.048c-0.176,0.81,1.602,2.058,1.422,2.891
			c-0.178,0.818-2.311,1.222-2.49,2.048c-0.178,0.827,1.598,2.077,1.422,2.897c-0.182,0.835-2.314,1.241-2.49,2.053
			c-0.182,0.844,1.594,2.093,1.422,2.894c-0.186,0.859-2.32,1.267-2.49,2.055c-0.189,0.881,1.586,2.133,1.422,2.896
			c-0.203,0.933-2.338,1.343-2.488,2.046C284.007,84.435,286.222,86.296,284.986,86.549z"/>
	</g>
	<g>
		<polyline fill="none" stroke="#000000" points="119.836,83.515 122.419,82.1 124.689,81.753 126.162,81.236 128.102,80.07 
			129.886,83.369 132.215,81.651 135.839,80.802 136.354,85.994 139.939,86.54 143.137,85.609 144.903,85.989 146.866,88.358 
			150.072,87.684 152.982,88.445 155.462,87.333 157.642,88.923 160.876,86.056 163.185,87.981 161.923,91.464 164.992,91.24 
			167.451,92.028 170.609,90.836 173.117,90.767 175.398,91.711 177.361,95.253 179.638,93.049 180.343,92.302 183.265,93 
			185.134,93.385 187.734,94.571 189.207,97.322 192.63,94.832 195.464,96.493 197.902,95.142 200.824,94.529 203.125,96.829 
			205.925,96.056 207.382,99.013 209.89,101.75 213.623,97.671 215.24,101.545 217.9,101.404 220.048,100.572 223.029,100.456 
			225.82,101.52 228.771,100.274 229.568,102.685 230.269,105.333 233.617,105.097 236.089,102.762 237.839,105.785 
			240.558,107.049 243.193,106.421 246.203,104.664 248.07,107.238 		"/>
	</g>
	<g>
		<polyline fill="none" stroke="#000000" points="116.753,92.99 119.513,92.28 122.279,91.545 124.364,94.118 126.7,95.477 
			129.254,95.774 132.387,93.27 134.396,96.215 137.479,93.964 139.252,98.019 142.44,95.232 144.83,96.309 146.772,99.561 
			149.616,98.451 152.479,97.25 154.98,97.806 156.943,100.975 159.694,100.323 161.854,102.534 164.283,103.438 166.927,103.29 
			169.378,104.087 172.566,101.33 174.58,104.253 177.134,104.543 180.07,102.999 182.095,105.883 184.437,107.25 187.435,105.437 
			189.888,106.245 192.187,107.807 194.677,108.433 197.291,108.465 200.171,107.207 202.414,109.037 205.212,108.177 
			207.093,111.768 209.595,112.351 212.048,113.174 215.125,110.976 217.388,112.715 219.945,113.024 222.21,114.736 
			225.316,112.378 227.443,114.769 229.88,115.657 232.806,114.166 234.822,117.079 237.371,117.417 240.152,116.625 
			242.527,117.792 245.396,116.548 		"/>
	</g>
	<g>
		<polyline fill="none" stroke="#000000" points="112.739,104.266 116.431,103.89 119.217,104.012 121.249,107.008 123.22,107.458 
			125.559,109.693 128.756,106.765 131.402,108.11 134.111,107.221 135.314,111.146 138.721,109.264 141.366,110.808 
			144.274,109.085 147.09,109.75 148.881,111.977 151.442,112.622 154.477,110.764 156.078,114.647 156.658,111.898 
			159.419,111.016 161.697,112.643 161.39,114.606 164.23,115.224 166.9,113.386 167.949,117.291 170.773,118.9 174.058,119.178 
			175.025,116.274 177.32,114.517 179.154,116.564 182.066,117.439 183.4,117.901 183.964,119.405 185.492,118.903 186.964,117.327 
			189.716,118.102 191.587,121.117 194.251,120.79 197.185,120.6 199.583,119.91 202.083,122.053 204.406,122.045 206.511,124.571 
			208.826,125.892 211.751,123.654 213.824,125.153 216.714,126.182 217.001,123.879 218.419,127.5 221.964,127.664 
			224.199,126.952 226.431,128.324 229.14,130.553 232.269,128.849 234.019,129.338 237.201,129.048 239.503,128.779 
			241.865,131.644 		"/>
	</g>
	<g>
		<g>
			<polyline fill="none" stroke="#000000" points="97.682,12.028 99.195,11.198 100.526,10.995 101.39,10.691 102.526,10.008 
				103.572,11.942 104.938,10.935 107.062,10.437 107.364,13.481 109.466,13.801 111.341,13.256 112.376,13.479 113.526,14.868 
				115.406,14.472 117.112,14.918 118.565,14.267 119.843,15.199 121.739,13.518 123.093,14.646 122.353,16.689 124.152,16.558 
				125.594,17.02 127.444,16.321 128.915,16.28 130.252,16.834 131.402,18.911 132.737,17.619 133.151,17.18 134.863,17.59 
				135.959,17.815 137.483,18.511 138.346,20.124 140.354,18.664 142.015,19.638 143.443,18.846 145.156,18.486 146.505,19.834 
				148.147,19.382 149.001,21.116 150.471,22.72 152.659,20.329 153.607,22.6 155.167,22.517 156.426,22.03 158.173,21.961 
				159.809,22.585 161.539,21.855 162.006,23.268 162.417,24.821 164.38,24.683 165.83,23.313 166.855,25.086 168.449,25.828 
				169.994,25.459 171.757,24.429 172.851,25.938 			"/>
		</g>
		<g>
			<polyline fill="none" stroke="#000000" points="95.874,17.583 97.492,17.167 99.114,16.736 100.336,18.245 101.705,19.042 
				103.202,19.216 105.039,17.748 106.217,19.475 108.023,18.155 109.063,20.533 110.933,18.898 112.333,19.53 113.472,21.437 
				115.139,20.786 116.817,20.082 118.283,20.408 119.434,22.266 121.047,21.884 122.312,23.18 123.735,23.71 125.286,23.624 
				126.724,24.091 128.592,22.474 129.771,24.188 131.27,24.358 132.991,23.452 134.178,25.144 135.55,25.945 137.309,24.882 
				138.746,25.356 140.094,26.272 141.554,26.639 143.086,26.658 144.774,25.92 146.089,26.993 147.729,26.489 148.832,28.594 
				150.299,28.936 151.736,29.419 153.54,28.13 154.866,29.15 156.365,29.331 157.693,30.335 159.514,28.952 160.761,30.354 
				162.189,30.875 163.904,30 165.085,31.708 166.58,31.907 168.21,31.442 169.603,32.126 171.285,31.397 			"/>
		</g>
		<g>
			<polyline fill="none" stroke="#000000" points="93.521,24.195 95.686,23.975 97.318,24.047 98.51,25.804 99.665,26.067 
				101.036,27.377 102.91,25.661 104.462,26.45 106.05,25.928 106.755,28.229 108.752,27.126 110.303,28.031 112.007,27.021 
				113.657,27.411 114.708,28.717 116.209,29.095 117.987,28.005 118.927,30.283 119.267,28.67 120.885,28.153 122.221,29.107 
				122.04,30.259 123.705,30.621 125.271,29.543 125.886,31.833 127.54,32.777 129.467,32.94 130.033,31.237 131.379,30.206 
				132.453,31.407 134.161,31.92 134.942,32.191 135.273,33.073 136.169,32.778 137.032,31.854 138.645,32.309 139.742,34.077 
				141.304,33.885 143.023,33.773 144.429,33.368 145.896,34.625 147.256,34.621 148.49,36.102 149.848,36.876 151.562,35.563 
				152.777,36.443 154.471,37.046 154.64,35.696 155.471,37.818 157.549,37.915 158.858,37.498 160.168,38.302 161.756,39.609 
				163.589,38.61 164.615,38.897 166.48,38.727 167.83,38.569 169.214,40.249 			"/>
		</g>
	</g>
</g>
</svg>
